G04*
G04 #@! TF.GenerationSoftware,Altium Limited,Altium Designer,19.0.15 (446)*
G04*
G04 Layer_Color=65535*
%FSLAX42Y42*%
%MOMM*%
G71*
G01*
G75*
%ADD10C,0.13*%
%ADD11C,0.20*%
%ADD12C,0.25*%
D10*
X483Y1600D02*
G03*
X965Y1600I241J0D01*
G01*
X1245Y546D02*
G03*
X1727Y546I241J0D01*
G01*
X1283Y2819D02*
G03*
X1765Y2819I241J0D01*
G01*
X914Y2756D02*
X1029D01*
X914Y2502D02*
Y2756D01*
X533Y2502D02*
X914D01*
X533D02*
Y2756D01*
X419D02*
X533D01*
X965Y1600D02*
Y1854D01*
X483Y1600D02*
Y1854D01*
X1029D02*
Y2756D01*
X419Y1854D02*
X1029D01*
X419D02*
Y2756D01*
X1181Y800D02*
Y1702D01*
Y800D02*
X1791D01*
Y1702D01*
X1245Y546D02*
Y800D01*
X1727Y546D02*
Y800D01*
X1181Y1702D02*
X1295D01*
Y1448D02*
Y1702D01*
Y1448D02*
X1676D01*
Y1702D01*
X1791D01*
X1219Y3073D02*
Y3975D01*
Y3073D02*
X1829D01*
Y3975D01*
X1283Y2819D02*
Y3073D01*
X1765Y2819D02*
Y3073D01*
X1219Y3975D02*
X1334D01*
Y3721D02*
Y3975D01*
Y3721D02*
X1715D01*
Y3975D01*
X1829D01*
D11*
X7569Y1308D02*
Y6198D01*
Y1118D02*
Y1308D01*
Y1118D02*
X7823D01*
Y6198D01*
X7569D02*
X7823D01*
X2095Y1448D02*
Y1524D01*
Y1448D02*
X2603D01*
Y1600D01*
X2095D02*
X2603D01*
X2095Y1524D02*
Y1600D01*
X2603Y1524D02*
X2626D01*
X2073D02*
X2095D01*
X5778Y6198D02*
X6033D01*
Y1118D02*
Y6198D01*
X5778Y1118D02*
X6033D01*
X5778D02*
Y1308D01*
Y6198D01*
X2146Y2273D02*
Y2350D01*
Y2273D02*
X2654D01*
Y2426D01*
X2146D02*
X2654D01*
X2146Y2350D02*
Y2426D01*
X2654Y2350D02*
X2677D01*
X2123D02*
X2146D01*
Y2972D02*
Y3048D01*
Y2972D02*
X2654D01*
Y3124D01*
X2146D02*
X2654D01*
X2146Y3048D02*
Y3124D01*
X2654Y3048D02*
X2677D01*
X2123D02*
X2146D01*
X5804Y6820D02*
Y7074D01*
X7836D01*
Y6820D02*
Y7074D01*
X5804Y6820D02*
X7836D01*
X4254Y5436D02*
X4508D01*
X4254D02*
Y7468D01*
X4508D01*
Y5436D02*
Y7468D01*
D12*
X7586Y6283D02*
Y6435D01*
X7662D01*
X7687Y6410D01*
Y6359D01*
X7662Y6333D01*
X7586D01*
X7636D02*
X7687Y6283D01*
X7738D02*
Y6384D01*
X7789Y6435D01*
X7840Y6384D01*
Y6283D01*
Y6359D01*
X7738D01*
X7992Y6410D02*
X7967Y6435D01*
X7916D01*
X7890Y6410D01*
Y6384D01*
X7916Y6359D01*
X7967D01*
X7992Y6333D01*
Y6308D01*
X7967Y6283D01*
X7916D01*
X7890Y6308D01*
X8043Y6283D02*
Y6435D01*
X8119D01*
X8144Y6410D01*
Y6359D01*
X8119Y6333D01*
X8043D01*
X8297Y6283D02*
X8195D01*
X8297Y6384D01*
Y6410D01*
X8271Y6435D01*
X8221D01*
X8195Y6410D01*
X439Y2992D02*
Y2840D01*
X516D01*
X541Y2865D01*
Y2967D01*
X516Y2992D01*
X439D01*
X693Y2840D02*
X592D01*
X693Y2941D01*
Y2967D01*
X668Y2992D01*
X617D01*
X592Y2967D01*
X5795Y6283D02*
Y6435D01*
X5871D01*
X5897Y6410D01*
Y6359D01*
X5871Y6333D01*
X5795D01*
X5846D02*
X5897Y6283D01*
X5947D02*
Y6384D01*
X5998Y6435D01*
X6049Y6384D01*
Y6283D01*
Y6359D01*
X5947D01*
X6201Y6410D02*
X6176Y6435D01*
X6125D01*
X6100Y6410D01*
Y6384D01*
X6125Y6359D01*
X6176D01*
X6201Y6333D01*
Y6308D01*
X6176Y6283D01*
X6125D01*
X6100Y6308D01*
X6252Y6283D02*
Y6435D01*
X6328D01*
X6354Y6410D01*
Y6359D01*
X6328Y6333D01*
X6252D01*
X6404Y6283D02*
X6455D01*
X6430D01*
Y6435D01*
X6404Y6410D01*
X1963Y3211D02*
Y3363D01*
X2040D01*
X2065Y3338D01*
Y3287D01*
X2040Y3261D01*
X1963D01*
X2014D02*
X2065Y3211D01*
X2116Y3338D02*
X2141Y3363D01*
X2192D01*
X2217Y3338D01*
Y3312D01*
X2192Y3287D01*
X2167D01*
X2192D01*
X2217Y3261D01*
Y3236D01*
X2192Y3211D01*
X2141D01*
X2116Y3236D01*
X1963Y2512D02*
Y2664D01*
X2040D01*
X2065Y2639D01*
Y2588D01*
X2040Y2563D01*
X1963D01*
X2014D02*
X2065Y2512D01*
X2217D02*
X2116D01*
X2217Y2614D01*
Y2639D01*
X2192Y2664D01*
X2141D01*
X2116Y2639D01*
X1913Y1687D02*
Y1839D01*
X1989D01*
X2014Y1814D01*
Y1763D01*
X1989Y1737D01*
X1913D01*
X1963D02*
X2014Y1687D01*
X2065D02*
X2116D01*
X2090D01*
Y1839D01*
X2065Y1814D01*
X4270Y7554D02*
Y7706D01*
X4371Y7554D01*
Y7706D01*
X4498D02*
X4447D01*
X4422Y7681D01*
Y7579D01*
X4447Y7554D01*
X4498D01*
X4524Y7579D01*
Y7681D01*
X4498Y7706D01*
X4574D02*
Y7554D01*
Y7605D01*
X4676Y7706D01*
X4600Y7630D01*
X4676Y7554D01*
X4727Y7706D02*
X4778D01*
X4752D01*
Y7554D01*
X4727D01*
X4778D01*
X4854D02*
Y7656D01*
X4905Y7706D01*
X4955Y7656D01*
Y7554D01*
Y7630D01*
X4854D01*
X5819Y7160D02*
Y7313D01*
X5870Y7262D01*
X5921Y7313D01*
Y7160D01*
X5971D02*
Y7262D01*
X6022Y7313D01*
X6073Y7262D01*
Y7160D01*
Y7236D01*
X5971D01*
X6124Y7313D02*
X6225Y7160D01*
Y7313D02*
X6124Y7160D01*
X1237Y4209D02*
Y4056D01*
X1313D01*
X1339Y4082D01*
Y4183D01*
X1313Y4209D01*
X1237D01*
X1389Y4183D02*
X1415Y4209D01*
X1466D01*
X1491Y4183D01*
Y4158D01*
X1466Y4133D01*
X1440D01*
X1466D01*
X1491Y4107D01*
Y4082D01*
X1466Y4056D01*
X1415D01*
X1389Y4082D01*
X1201Y1938D02*
Y1786D01*
X1278D01*
X1303Y1811D01*
Y1913D01*
X1278Y1938D01*
X1201D01*
X1354Y1786D02*
X1405D01*
X1379D01*
Y1938D01*
X1354Y1913D01*
M02*
