G04*
G04 #@! TF.GenerationSoftware,Altium Limited,Altium Designer,19.0.15 (446)*
G04*
G04 Layer_Physical_Order=1*
G04 Layer_Color=255*
%FSLAX42Y42*%
%MOMM*%
G71*
G01*
G75*
%ADD12C,0.25*%
%ADD19C,1.00*%
%ADD20C,1.50*%
%ADD21R,1.50X1.50*%
%ADD22C,1.52*%
%ADD23C,1.78*%
%ADD24C,1.40*%
%ADD25R,1.50X1.50*%
G36*
X8891Y114D02*
X114D01*
Y4307D01*
X126Y4312D01*
X153Y4280D01*
X191Y4249D01*
X234Y4226D01*
X281Y4211D01*
X330Y4206D01*
X379Y4211D01*
X426Y4226D01*
X470Y4249D01*
X508Y4280D01*
X539Y4318D01*
X562Y4362D01*
X577Y4409D01*
X581Y4458D01*
X577Y4507D01*
X562Y4554D01*
X539Y4597D01*
X508Y4635D01*
X470Y4667D01*
X426Y4690D01*
X379Y4704D01*
X330Y4709D01*
X281Y4704D01*
X234Y4690D01*
X191Y4667D01*
X153Y4635D01*
X126Y4603D01*
X114Y4608D01*
Y8371D01*
X126Y8376D01*
X153Y8344D01*
X191Y8313D01*
X234Y8290D01*
X281Y8275D01*
X330Y8270D01*
X379Y8275D01*
X426Y8290D01*
X470Y8313D01*
X508Y8344D01*
X539Y8382D01*
X562Y8426D01*
X577Y8473D01*
X581Y8522D01*
X577Y8571D01*
X562Y8618D01*
X539Y8661D01*
X508Y8699D01*
X470Y8731D01*
X426Y8754D01*
X379Y8768D01*
X330Y8773D01*
X281Y8768D01*
X234Y8754D01*
X191Y8731D01*
X153Y8699D01*
X126Y8667D01*
X114Y8672D01*
Y9386D01*
X8891D01*
Y114D01*
D02*
G37*
%LPC*%
G36*
X8600Y9326D02*
X8556Y9322D01*
X8513Y9309D01*
X8474Y9288D01*
X8440Y9260D01*
X8412Y9226D01*
X8391Y9187D01*
X8378Y9144D01*
X8374Y9100D01*
X8378Y9056D01*
X8391Y9013D01*
X8412Y8974D01*
X8440Y8940D01*
X8474Y8912D01*
X8513Y8891D01*
X8556Y8878D01*
X8600Y8874D01*
X8644Y8878D01*
X8687Y8891D01*
X8726Y8912D01*
X8760Y8940D01*
X8788Y8974D01*
X8809Y9013D01*
X8822Y9056D01*
X8826Y9100D01*
X8822Y9144D01*
X8809Y9187D01*
X8788Y9226D01*
X8760Y9260D01*
X8726Y9288D01*
X8687Y9309D01*
X8644Y9322D01*
X8600Y9326D01*
D02*
G37*
G36*
X400D02*
X356Y9322D01*
X313Y9309D01*
X274Y9288D01*
X240Y9260D01*
X212Y9226D01*
X191Y9187D01*
X178Y9144D01*
X174Y9100D01*
X178Y9056D01*
X191Y9013D01*
X212Y8974D01*
X240Y8940D01*
X274Y8912D01*
X313Y8891D01*
X356Y8878D01*
X400Y8874D01*
X444Y8878D01*
X487Y8891D01*
X526Y8912D01*
X560Y8940D01*
X588Y8974D01*
X609Y9013D01*
X622Y9056D01*
X626Y9100D01*
X622Y9144D01*
X609Y9187D01*
X588Y9226D01*
X560Y9260D01*
X526Y9288D01*
X487Y9309D01*
X444Y9322D01*
X400Y9326D01*
D02*
G37*
G36*
X4394Y8773D02*
X4345Y8768D01*
X4298Y8754D01*
X4255Y8731D01*
X4217Y8699D01*
X4185Y8661D01*
X4162Y8618D01*
X4148Y8571D01*
X4143Y8522D01*
X4148Y8473D01*
X4162Y8426D01*
X4185Y8382D01*
X4217Y8344D01*
X4255Y8313D01*
X4298Y8290D01*
X4345Y8275D01*
X4394Y8270D01*
X4443Y8275D01*
X4490Y8290D01*
X4534Y8313D01*
X4572Y8344D01*
X4603Y8382D01*
X4626Y8426D01*
X4641Y8473D01*
X4645Y8522D01*
X4641Y8571D01*
X4626Y8618D01*
X4603Y8661D01*
X4572Y8699D01*
X4534Y8731D01*
X4490Y8754D01*
X4443Y8768D01*
X4394Y8773D01*
D02*
G37*
G36*
X1651Y3784D02*
X1614Y3780D01*
X1578Y3769D01*
X1546Y3752D01*
X1524Y3734D01*
X1502Y3752D01*
X1470Y3769D01*
X1434Y3780D01*
X1397Y3784D01*
X1360Y3780D01*
X1324Y3769D01*
X1292Y3752D01*
X1263Y3728D01*
X1239Y3700D01*
X1222Y3667D01*
X1211Y3631D01*
X1210Y3620D01*
X490Y2901D01*
X472Y2878D01*
X458Y2852D01*
X449Y2823D01*
X446Y2794D01*
Y2489D01*
X439Y2480D01*
X422Y2448D01*
X411Y2412D01*
X407Y2375D01*
X411Y2338D01*
X422Y2302D01*
X439Y2269D01*
X446Y2261D01*
Y2083D01*
X449Y2053D01*
X458Y2025D01*
X472Y1999D01*
X490Y1976D01*
X1172Y1295D01*
X1173Y1284D01*
X1184Y1248D01*
X1201Y1215D01*
X1225Y1187D01*
X1253Y1163D01*
X1286Y1145D01*
X1322Y1135D01*
X1359Y1131D01*
X1396Y1135D01*
X1432Y1145D01*
X1464Y1163D01*
X1486Y1181D01*
X1507Y1163D01*
X1540Y1145D01*
X1576Y1135D01*
X1613Y1131D01*
X1650Y1135D01*
X1686Y1145D01*
X1718Y1163D01*
X1745Y1185D01*
X1780D01*
X1810Y1188D01*
X1838Y1196D01*
X1864Y1210D01*
X1887Y1229D01*
X2019Y1362D01*
X2034Y1366D01*
X2063Y1382D01*
X2089Y1403D01*
X2111Y1429D01*
X2126Y1459D01*
X2136Y1491D01*
X2139Y1524D01*
X2136Y1557D01*
X2126Y1589D01*
X2111Y1619D01*
X2089Y1645D01*
X2063Y1666D01*
X2034Y1682D01*
X2002Y1692D01*
X1968Y1695D01*
X1935Y1692D01*
X1903Y1682D01*
X1874Y1666D01*
X1848Y1645D01*
X1826Y1619D01*
X1811Y1589D01*
X1806Y1575D01*
X1718Y1486D01*
X1704D01*
X1686Y1496D01*
X1650Y1507D01*
X1613Y1511D01*
X1576Y1507D01*
X1540Y1496D01*
X1507Y1479D01*
X1486Y1461D01*
X1464Y1479D01*
X1432Y1496D01*
X1396Y1507D01*
X1385Y1508D01*
X748Y2145D01*
Y2204D01*
X759Y2210D01*
X778Y2200D01*
X814Y2189D01*
X851Y2185D01*
X888Y2189D01*
X924Y2200D01*
X956Y2217D01*
X965Y2224D01*
X1904D01*
X1924Y2207D01*
X1954Y2192D01*
X1986Y2182D01*
X2019Y2179D01*
X2053Y2182D01*
X2085Y2192D01*
X2114Y2207D01*
X2140Y2229D01*
X2161Y2255D01*
X2177Y2284D01*
X2187Y2316D01*
X2190Y2350D01*
X2187Y2383D01*
X2177Y2415D01*
X2161Y2444D01*
X2140Y2470D01*
X2114Y2492D01*
X2085Y2507D01*
X2053Y2517D01*
X2021Y2520D01*
X2012Y2523D01*
X1983Y2526D01*
X965D01*
X956Y2533D01*
X924Y2550D01*
X888Y2561D01*
X851Y2565D01*
X814Y2561D01*
X778Y2550D01*
X759Y2540D01*
X748Y2546D01*
Y2732D01*
X1423Y3407D01*
X1434Y3408D01*
X1470Y3419D01*
X1502Y3436D01*
X1524Y3454D01*
X1546Y3436D01*
X1578Y3419D01*
X1614Y3408D01*
X1625Y3407D01*
X1627Y3405D01*
Y3289D01*
X1630Y3260D01*
X1639Y3232D01*
X1653Y3206D01*
X1671Y3183D01*
X1857Y2997D01*
X1861Y2983D01*
X1877Y2953D01*
X1899Y2927D01*
X1924Y2906D01*
X1954Y2890D01*
X1986Y2880D01*
X2019Y2877D01*
X2053Y2880D01*
X2085Y2890D01*
X2114Y2906D01*
X2140Y2927D01*
X2161Y2953D01*
X2177Y2983D01*
X2187Y3015D01*
X2190Y3048D01*
X2187Y3081D01*
X2177Y3113D01*
X2161Y3143D01*
X2140Y3169D01*
X2114Y3190D01*
X2085Y3206D01*
X2070Y3210D01*
X1929Y3352D01*
Y3467D01*
X1926Y3497D01*
X1917Y3525D01*
X1903Y3551D01*
X1885Y3574D01*
X1838Y3620D01*
X1837Y3631D01*
X1826Y3667D01*
X1809Y3700D01*
X1785Y3728D01*
X1756Y3752D01*
X1724Y3769D01*
X1688Y3780D01*
X1651Y3784D01*
D02*
G37*
G36*
X4556Y7516D02*
X4206D01*
Y7166D01*
X4213D01*
X4219Y7156D01*
X4219Y7153D01*
X4209Y7121D01*
X4206Y7087D01*
X4209Y7052D01*
X4219Y7019D01*
X4233Y6994D01*
X4227Y6981D01*
X4225Y6980D01*
X4197Y6972D01*
X4171Y6958D01*
X4148Y6939D01*
X3754Y6545D01*
X3735Y6523D01*
X3722Y6497D01*
X3713Y6468D01*
X3710Y6439D01*
Y4229D01*
X3713Y4200D01*
X3722Y4171D01*
X3735Y4145D01*
X3754Y4123D01*
X5469Y2408D01*
X5469Y2408D01*
X5492Y2389D01*
X5518Y2375D01*
X5546Y2367D01*
X5575Y2364D01*
X5575Y2364D01*
X5748D01*
X5755Y2351D01*
X5743Y2328D01*
X5733Y2295D01*
X5730Y2261D01*
X5733Y2226D01*
X5743Y2193D01*
X5759Y2163D01*
X5776Y2143D01*
X5780Y2134D01*
X5776Y2124D01*
X5759Y2104D01*
X5743Y2074D01*
X5733Y2041D01*
X5730Y2007D01*
X5733Y1972D01*
X5743Y1939D01*
X5759Y1909D01*
X5776Y1889D01*
X5780Y1880D01*
X5776Y1870D01*
X5759Y1850D01*
X5743Y1820D01*
X5733Y1787D01*
X5730Y1753D01*
X5733Y1718D01*
X5743Y1685D01*
X5759Y1655D01*
X5776Y1635D01*
X5780Y1626D01*
X5776Y1616D01*
X5759Y1596D01*
X5743Y1566D01*
X5733Y1533D01*
X5730Y1499D01*
X5733Y1464D01*
X5743Y1432D01*
X5743Y1429D01*
X5737Y1420D01*
X5731D01*
Y1154D01*
X4888D01*
X2943Y3099D01*
X2939Y3113D01*
X2923Y3143D01*
X2902Y3169D01*
X2876Y3190D01*
X2847Y3206D01*
X2815Y3216D01*
X2781Y3219D01*
X2748Y3216D01*
X2716Y3206D01*
X2686Y3190D01*
X2661Y3169D01*
X2639Y3143D01*
X2623Y3113D01*
X2614Y3081D01*
X2610Y3048D01*
X2614Y3015D01*
X2623Y2983D01*
X2639Y2953D01*
X2661Y2927D01*
X2686Y2906D01*
X2716Y2890D01*
X2730Y2886D01*
X4692Y924D01*
X4687Y913D01*
X4431D01*
X2943Y2400D01*
X2939Y2415D01*
X2923Y2444D01*
X2902Y2470D01*
X2876Y2492D01*
X2847Y2507D01*
X2815Y2517D01*
X2781Y2520D01*
X2748Y2517D01*
X2716Y2507D01*
X2686Y2492D01*
X2661Y2470D01*
X2639Y2444D01*
X2623Y2415D01*
X2614Y2383D01*
X2610Y2350D01*
X2614Y2316D01*
X2623Y2284D01*
X2639Y2255D01*
X2661Y2229D01*
X2686Y2207D01*
X2716Y2192D01*
X2730Y2187D01*
X4222Y696D01*
X4217Y684D01*
X3557D01*
X2881Y1360D01*
Y1445D01*
X2888Y1459D01*
X2898Y1491D01*
X2901Y1524D01*
X2898Y1557D01*
X2888Y1589D01*
X2873Y1619D01*
X2851Y1645D01*
X2825Y1666D01*
X2796Y1682D01*
X2764Y1692D01*
X2731Y1695D01*
X2697Y1692D01*
X2665Y1682D01*
X2636Y1666D01*
X2610Y1645D01*
X2588Y1619D01*
X2573Y1589D01*
X2563Y1557D01*
X2560Y1524D01*
X2563Y1491D01*
X2573Y1459D01*
X2580Y1445D01*
Y1298D01*
X2583Y1269D01*
X2591Y1240D01*
X2605Y1214D01*
X2624Y1191D01*
X3388Y427D01*
X3411Y408D01*
X3437Y394D01*
X3466Y386D01*
X3495Y383D01*
X7772D01*
X7802Y386D01*
X7830Y394D01*
X7856Y408D01*
X7879Y427D01*
X8565Y1113D01*
X8584Y1135D01*
X8597Y1162D01*
X8606Y1190D01*
X8609Y1219D01*
X8609Y1219D01*
Y3594D01*
X8606Y3624D01*
X8597Y3652D01*
X8584Y3678D01*
X8565Y3701D01*
X8120Y4145D01*
X8097Y4164D01*
X8071Y4178D01*
X8043Y4186D01*
X8014Y4189D01*
X7854D01*
X7846Y4202D01*
X7859Y4225D01*
X7869Y4258D01*
X7872Y4293D01*
X7869Y4327D01*
X7859Y4360D01*
X7842Y4390D01*
X7826Y4410D01*
X7822Y4420D01*
X7826Y4429D01*
X7842Y4449D01*
X7859Y4479D01*
X7869Y4512D01*
X7872Y4547D01*
X7869Y4581D01*
X7859Y4614D01*
X7842Y4644D01*
X7826Y4664D01*
X7822Y4674D01*
X7826Y4683D01*
X7842Y4703D01*
X7859Y4733D01*
X7869Y4766D01*
X7872Y4801D01*
X7869Y4835D01*
X7859Y4868D01*
X7846Y4892D01*
X7852Y4906D01*
X7863Y4907D01*
X7891Y4915D01*
X7917Y4929D01*
X7940Y4948D01*
X8029Y5037D01*
X8048Y5060D01*
X8062Y5086D01*
X8070Y5114D01*
X8073Y5144D01*
Y6734D01*
X8070Y6763D01*
X8062Y6791D01*
X8048Y6817D01*
X8029Y6840D01*
X7884Y6985D01*
Y7122D01*
X7605D01*
X7603Y7141D01*
X7594Y7170D01*
X7580Y7196D01*
X7561Y7219D01*
X7353Y7427D01*
X7330Y7446D01*
X7304Y7460D01*
X7276Y7468D01*
X7247Y7471D01*
X5842D01*
X5813Y7468D01*
X5784Y7460D01*
X5758Y7446D01*
X5735Y7427D01*
X5573Y7264D01*
X5554Y7241D01*
X5540Y7215D01*
X5532Y7187D01*
X5529Y7158D01*
Y7023D01*
X5517Y7018D01*
X5088Y7447D01*
X5065Y7466D01*
X5039Y7480D01*
X5010Y7488D01*
X4981Y7491D01*
X4556D01*
Y7516D01*
D02*
G37*
G36*
X8600Y626D02*
X8556Y622D01*
X8513Y609D01*
X8474Y588D01*
X8440Y560D01*
X8412Y526D01*
X8391Y487D01*
X8378Y444D01*
X8374Y400D01*
X8378Y356D01*
X8391Y313D01*
X8412Y274D01*
X8440Y240D01*
X8474Y212D01*
X8513Y191D01*
X8556Y178D01*
X8600Y174D01*
X8644Y178D01*
X8687Y191D01*
X8726Y212D01*
X8760Y240D01*
X8788Y274D01*
X8809Y313D01*
X8822Y356D01*
X8826Y400D01*
X8822Y444D01*
X8809Y487D01*
X8788Y526D01*
X8760Y560D01*
X8726Y588D01*
X8687Y609D01*
X8644Y622D01*
X8600Y626D01*
D02*
G37*
G36*
X400D02*
X356Y622D01*
X313Y609D01*
X274Y588D01*
X240Y560D01*
X212Y526D01*
X191Y487D01*
X178Y444D01*
X174Y400D01*
X178Y356D01*
X191Y313D01*
X212Y274D01*
X240Y240D01*
X274Y212D01*
X313Y191D01*
X356Y178D01*
X400Y174D01*
X444Y178D01*
X487Y191D01*
X526Y212D01*
X560Y240D01*
X588Y274D01*
X609Y313D01*
X622Y356D01*
X626Y400D01*
X622Y444D01*
X609Y487D01*
X588Y526D01*
X560Y560D01*
X526Y588D01*
X487Y609D01*
X444Y622D01*
X400Y626D01*
D02*
G37*
%LPD*%
G36*
X7221Y7133D02*
X7216Y7121D01*
X7201Y7123D01*
X7167Y7119D01*
X7134Y7109D01*
X7103Y7093D01*
X7083Y7077D01*
X7074Y7072D01*
X7065Y7077D01*
X7045Y7093D01*
X7014Y7109D01*
X6981Y7119D01*
X6947Y7123D01*
X6913Y7119D01*
X6880Y7109D01*
X6849Y7093D01*
X6829Y7077D01*
X6820Y7072D01*
X6811Y7077D01*
X6791Y7093D01*
X6760Y7109D01*
X6727Y7119D01*
X6693Y7123D01*
X6659Y7119D01*
X6626Y7109D01*
X6595Y7093D01*
X6575Y7077D01*
X6566Y7072D01*
X6557Y7077D01*
X6537Y7093D01*
X6506Y7109D01*
X6473Y7119D01*
X6439Y7123D01*
X6405Y7119D01*
X6372Y7109D01*
X6341Y7093D01*
X6321Y7077D01*
X6312Y7072D01*
X6303Y7077D01*
X6283Y7093D01*
X6252Y7109D01*
X6219Y7119D01*
X6185Y7123D01*
X6151Y7119D01*
X6118Y7109D01*
X6087Y7093D01*
X6067Y7077D01*
X6058Y7072D01*
X6049Y7077D01*
X6029Y7093D01*
X5998Y7109D01*
X5965Y7119D01*
X5931Y7123D01*
X5897Y7119D01*
X5864Y7109D01*
X5861Y7108D01*
X5853Y7118D01*
X5904Y7170D01*
X7184D01*
X7221Y7133D01*
D02*
G37*
G36*
X7337Y6817D02*
X7357Y6801D01*
X7388Y6784D01*
X7421Y6774D01*
X7455Y6771D01*
X7489Y6774D01*
X7521Y6784D01*
X7524Y6784D01*
X7534Y6778D01*
Y6772D01*
X7671D01*
X7772Y6671D01*
Y6242D01*
X7759Y6234D01*
X7731Y6243D01*
X7696Y6246D01*
X7662Y6243D01*
X7629Y6233D01*
X7599Y6217D01*
X7572Y6195D01*
X7550Y6168D01*
X7534Y6138D01*
X7524Y6105D01*
X7520Y6071D01*
X7524Y6036D01*
X7534Y6003D01*
X7550Y5973D01*
X7566Y5953D01*
X7571Y5944D01*
X7566Y5934D01*
X7550Y5914D01*
X7534Y5884D01*
X7524Y5851D01*
X7520Y5817D01*
X7524Y5782D01*
X7534Y5749D01*
X7550Y5719D01*
X7566Y5699D01*
X7571Y5690D01*
X7566Y5680D01*
X7550Y5660D01*
X7534Y5630D01*
X7524Y5597D01*
X7520Y5563D01*
X7524Y5528D01*
X7534Y5495D01*
X7550Y5465D01*
X7566Y5445D01*
X7571Y5436D01*
X7566Y5426D01*
X7550Y5406D01*
X7534Y5376D01*
X7524Y5343D01*
X7520Y5309D01*
X7524Y5274D01*
X7534Y5241D01*
X7550Y5211D01*
X7566Y5191D01*
X7571Y5182D01*
X7566Y5172D01*
X7550Y5152D01*
X7534Y5122D01*
X7524Y5089D01*
X7520Y5055D01*
X7524Y5020D01*
X7534Y4987D01*
X7550Y4957D01*
X7566Y4937D01*
X7571Y4928D01*
X7566Y4918D01*
X7550Y4898D01*
X7534Y4868D01*
X7524Y4835D01*
X7520Y4801D01*
X7524Y4766D01*
X7534Y4733D01*
X7550Y4703D01*
X7566Y4683D01*
X7571Y4674D01*
X7566Y4664D01*
X7550Y4644D01*
X7534Y4614D01*
X7524Y4581D01*
X7520Y4547D01*
X7524Y4512D01*
X7534Y4479D01*
X7550Y4449D01*
X7566Y4429D01*
X7571Y4420D01*
X7566Y4410D01*
X7550Y4390D01*
X7534Y4360D01*
X7524Y4327D01*
X7520Y4293D01*
X7524Y4258D01*
X7534Y4225D01*
X7550Y4195D01*
X7566Y4175D01*
X7571Y4166D01*
X7566Y4156D01*
X7550Y4136D01*
X7534Y4106D01*
X7524Y4073D01*
X7520Y4039D01*
X7524Y4004D01*
X7534Y3971D01*
X7550Y3941D01*
X7566Y3921D01*
X7571Y3912D01*
X7566Y3902D01*
X7550Y3882D01*
X7534Y3852D01*
X7524Y3819D01*
X7520Y3785D01*
X7524Y3750D01*
X7534Y3717D01*
X7550Y3687D01*
X7566Y3667D01*
X7571Y3658D01*
X7566Y3648D01*
X7550Y3628D01*
X7534Y3598D01*
X7524Y3565D01*
X7520Y3531D01*
X7524Y3496D01*
X7534Y3463D01*
X7546Y3440D01*
X7539Y3427D01*
X7471D01*
X7442Y3424D01*
X7414Y3416D01*
X7387Y3402D01*
X7365Y3383D01*
X7211Y3230D01*
X7192Y3207D01*
X7178Y3181D01*
X7170Y3153D01*
X7167Y3123D01*
Y1416D01*
X6905Y1154D01*
X6081D01*
Y1420D01*
X6074D01*
X6068Y1429D01*
X6068Y1432D01*
X6078Y1464D01*
X6081Y1499D01*
X6078Y1533D01*
X6068Y1566D01*
X6052Y1596D01*
X6035Y1616D01*
X6031Y1626D01*
X6035Y1635D01*
X6052Y1655D01*
X6068Y1685D01*
X6078Y1718D01*
X6081Y1753D01*
X6078Y1787D01*
X6068Y1820D01*
X6052Y1850D01*
X6035Y1870D01*
X6031Y1880D01*
X6035Y1889D01*
X6052Y1909D01*
X6068Y1939D01*
X6078Y1972D01*
X6081Y2007D01*
X6078Y2041D01*
X6068Y2074D01*
X6052Y2104D01*
X6035Y2124D01*
X6031Y2134D01*
X6035Y2143D01*
X6052Y2163D01*
X6068Y2193D01*
X6078Y2226D01*
X6081Y2261D01*
X6078Y2295D01*
X6068Y2328D01*
X6052Y2358D01*
X6035Y2378D01*
X6031Y2388D01*
X6035Y2397D01*
X6052Y2417D01*
X6068Y2447D01*
X6078Y2480D01*
X6081Y2515D01*
X6078Y2549D01*
X6068Y2582D01*
X6052Y2612D01*
X6035Y2632D01*
X6031Y2642D01*
X6035Y2651D01*
X6052Y2671D01*
X6068Y2701D01*
X6078Y2734D01*
X6081Y2769D01*
X6078Y2803D01*
X6068Y2836D01*
X6052Y2866D01*
X6035Y2886D01*
X6031Y2896D01*
X6035Y2905D01*
X6052Y2925D01*
X6068Y2955D01*
X6078Y2988D01*
X6081Y3023D01*
X6078Y3057D01*
X6068Y3090D01*
X6052Y3120D01*
X6035Y3140D01*
X6031Y3150D01*
X6035Y3159D01*
X6052Y3179D01*
X6068Y3209D01*
X6078Y3242D01*
X6081Y3277D01*
X6078Y3311D01*
X6068Y3344D01*
X6052Y3374D01*
X6035Y3394D01*
X6031Y3404D01*
X6035Y3413D01*
X6052Y3433D01*
X6068Y3463D01*
X6078Y3496D01*
X6081Y3531D01*
X6078Y3565D01*
X6068Y3598D01*
X6052Y3628D01*
X6035Y3648D01*
X6031Y3658D01*
X6035Y3667D01*
X6052Y3687D01*
X6068Y3717D01*
X6078Y3750D01*
X6081Y3785D01*
X6078Y3819D01*
X6068Y3852D01*
X6052Y3882D01*
X6035Y3902D01*
X6031Y3912D01*
X6035Y3921D01*
X6052Y3941D01*
X6068Y3971D01*
X6078Y4004D01*
X6081Y4039D01*
X6078Y4073D01*
X6068Y4106D01*
X6052Y4136D01*
X6035Y4156D01*
X6031Y4166D01*
X6035Y4175D01*
X6052Y4195D01*
X6068Y4225D01*
X6078Y4258D01*
X6081Y4293D01*
X6078Y4327D01*
X6068Y4360D01*
X6056Y4383D01*
X6063Y4396D01*
X6668D01*
X6697Y4399D01*
X6725Y4407D01*
X6751Y4421D01*
X6774Y4440D01*
X7053Y4719D01*
X7072Y4742D01*
X7086Y4768D01*
X7095Y4797D01*
X7098Y4826D01*
Y6789D01*
X7110Y6797D01*
X7134Y6784D01*
X7167Y6774D01*
X7201Y6771D01*
X7235Y6774D01*
X7268Y6784D01*
X7299Y6801D01*
X7319Y6817D01*
X7328Y6821D01*
X7337Y6817D01*
D02*
G37*
G36*
X6034Y6789D02*
Y6208D01*
X6021Y6202D01*
X6003Y6217D01*
X5973Y6233D01*
X5940Y6243D01*
X5906Y6246D01*
X5871Y6243D01*
X5843Y6234D01*
X5830Y6242D01*
Y6788D01*
X5843Y6796D01*
X5864Y6784D01*
X5897Y6774D01*
X5931Y6771D01*
X5965Y6774D01*
X5998Y6784D01*
X6021Y6797D01*
X6034Y6789D01*
D02*
G37*
G36*
X5273Y6836D02*
Y6106D01*
X5261Y6101D01*
X4677Y6685D01*
X4654Y6704D01*
X4628Y6718D01*
X4599Y6726D01*
X4570Y6729D01*
X4539D01*
X4532Y6742D01*
X4544Y6765D01*
X4554Y6798D01*
X4557Y6833D01*
X4554Y6867D01*
X4544Y6900D01*
X4528Y6930D01*
X4511Y6950D01*
X4507Y6960D01*
X4511Y6969D01*
X4528Y6989D01*
X4544Y7019D01*
X4554Y7052D01*
X4557Y7087D01*
X4554Y7121D01*
X4544Y7153D01*
X4544Y7156D01*
X4550Y7166D01*
X4556D01*
Y7190D01*
X4919D01*
X5273Y6836D01*
D02*
G37*
G36*
X6542Y5208D02*
Y5015D01*
X6478Y4951D01*
X6286D01*
X6281Y4963D01*
X6530Y5212D01*
X6542Y5208D01*
D02*
G37*
G36*
X5662Y5456D02*
X5685Y5437D01*
X5711Y5423D01*
X5739Y5415D01*
X5750Y5414D01*
X5756Y5400D01*
X5743Y5376D01*
X5733Y5343D01*
X5730Y5309D01*
X5733Y5274D01*
X5743Y5241D01*
X5759Y5211D01*
X5776Y5191D01*
X5780Y5182D01*
X5776Y5172D01*
X5759Y5152D01*
X5743Y5122D01*
X5733Y5089D01*
X5730Y5055D01*
X5733Y5020D01*
X5743Y4987D01*
X5759Y4957D01*
X5776Y4937D01*
X5780Y4928D01*
X5776Y4918D01*
X5759Y4898D01*
X5743Y4868D01*
X5733Y4835D01*
X5730Y4801D01*
X5733Y4766D01*
X5743Y4733D01*
X5759Y4703D01*
X5776Y4683D01*
X5780Y4674D01*
X5776Y4664D01*
X5759Y4644D01*
X5743Y4614D01*
X5733Y4581D01*
X5730Y4547D01*
X5733Y4512D01*
X5743Y4479D01*
X5759Y4449D01*
X5776Y4429D01*
X5780Y4420D01*
X5776Y4410D01*
X5759Y4390D01*
X5743Y4360D01*
X5733Y4327D01*
X5730Y4293D01*
X5733Y4258D01*
X5743Y4225D01*
X5759Y4195D01*
X5776Y4175D01*
X5780Y4166D01*
X5776Y4156D01*
X5759Y4136D01*
X5743Y4106D01*
X5733Y4073D01*
X5730Y4039D01*
X5733Y4004D01*
X5743Y3971D01*
X5751Y3957D01*
X5744Y3943D01*
X5741Y3943D01*
X5574Y4110D01*
Y5527D01*
X5586Y5532D01*
X5662Y5456D01*
D02*
G37*
G36*
X5564Y3693D02*
X5560Y3681D01*
X5384D01*
X5340Y3725D01*
Y3900D01*
X5352Y3905D01*
X5564Y3693D01*
D02*
G37*
G36*
X4208Y6557D02*
X4209Y6544D01*
X4219Y6511D01*
X4235Y6481D01*
X4252Y6461D01*
X4256Y6452D01*
X4252Y6442D01*
X4235Y6422D01*
X4219Y6392D01*
X4209Y6359D01*
X4206Y6325D01*
X4209Y6290D01*
X4219Y6257D01*
X4235Y6227D01*
X4252Y6207D01*
X4256Y6198D01*
X4252Y6188D01*
X4235Y6168D01*
X4219Y6138D01*
X4209Y6105D01*
X4206Y6071D01*
X4209Y6036D01*
X4219Y6003D01*
X4235Y5973D01*
X4252Y5953D01*
X4256Y5944D01*
X4252Y5934D01*
X4235Y5914D01*
X4219Y5884D01*
X4209Y5851D01*
X4206Y5817D01*
X4209Y5782D01*
X4219Y5749D01*
X4235Y5719D01*
X4252Y5699D01*
X4256Y5690D01*
X4252Y5680D01*
X4235Y5660D01*
X4219Y5630D01*
X4209Y5597D01*
X4206Y5563D01*
X4209Y5528D01*
X4219Y5495D01*
X4235Y5465D01*
X4257Y5438D01*
X4284Y5416D01*
X4314Y5400D01*
X4347Y5390D01*
X4381Y5387D01*
X4416Y5390D01*
X4449Y5400D01*
X4479Y5416D01*
X4506Y5438D01*
X4528Y5465D01*
X4544Y5495D01*
X4554Y5528D01*
X4557Y5563D01*
X4554Y5597D01*
X4544Y5630D01*
X4528Y5660D01*
X4511Y5680D01*
X4507Y5690D01*
X4511Y5699D01*
X4528Y5719D01*
X4544Y5749D01*
X4554Y5782D01*
X4557Y5817D01*
X4554Y5851D01*
X4544Y5884D01*
X4528Y5914D01*
X4511Y5934D01*
X4507Y5944D01*
X4511Y5953D01*
X4528Y5973D01*
X4544Y6003D01*
X4554Y6036D01*
X4557Y6070D01*
X4561Y6073D01*
X4569Y6077D01*
X4839Y5806D01*
Y3578D01*
X4842Y3548D01*
X4850Y3520D01*
X4864Y3494D01*
X4883Y3471D01*
X5184Y3170D01*
X5207Y3151D01*
X5233Y3137D01*
X5261Y3129D01*
X5291Y3126D01*
X5748D01*
X5755Y3113D01*
X5743Y3090D01*
X5733Y3057D01*
X5730Y3023D01*
X5733Y2988D01*
X5743Y2955D01*
X5759Y2925D01*
X5776Y2905D01*
X5780Y2896D01*
X5776Y2886D01*
X5759Y2866D01*
X5743Y2836D01*
X5733Y2803D01*
X5730Y2769D01*
X5733Y2734D01*
X5743Y2701D01*
X5755Y2678D01*
X5748Y2665D01*
X5638D01*
X4012Y4292D01*
Y6376D01*
X4196Y6561D01*
X4208Y6557D01*
D02*
G37*
G36*
X8307Y3532D02*
Y1282D01*
X8277Y1252D01*
X8269Y1256D01*
X8266Y1258D01*
Y3557D01*
X8278Y3561D01*
X8307Y3532D01*
D02*
G37*
G36*
X7965Y3544D02*
Y1320D01*
X7883Y1238D01*
X7871Y1243D01*
Y1420D01*
X7865D01*
X7859Y1429D01*
X7859Y1432D01*
X7869Y1464D01*
X7872Y1499D01*
X7869Y1533D01*
X7859Y1566D01*
X7842Y1596D01*
X7826Y1616D01*
X7822Y1626D01*
X7826Y1635D01*
X7842Y1655D01*
X7859Y1685D01*
X7869Y1718D01*
X7872Y1753D01*
X7869Y1787D01*
X7859Y1820D01*
X7842Y1850D01*
X7826Y1870D01*
X7822Y1880D01*
X7826Y1889D01*
X7842Y1909D01*
X7859Y1939D01*
X7869Y1972D01*
X7872Y2007D01*
X7869Y2041D01*
X7859Y2074D01*
X7842Y2104D01*
X7826Y2124D01*
X7822Y2134D01*
X7826Y2143D01*
X7842Y2163D01*
X7859Y2193D01*
X7869Y2226D01*
X7872Y2261D01*
X7869Y2295D01*
X7859Y2328D01*
X7842Y2358D01*
X7826Y2378D01*
X7822Y2388D01*
X7826Y2397D01*
X7842Y2417D01*
X7859Y2447D01*
X7869Y2480D01*
X7872Y2515D01*
X7869Y2549D01*
X7859Y2582D01*
X7842Y2612D01*
X7826Y2632D01*
X7822Y2642D01*
X7826Y2651D01*
X7842Y2671D01*
X7859Y2701D01*
X7869Y2734D01*
X7872Y2769D01*
X7869Y2803D01*
X7859Y2836D01*
X7842Y2866D01*
X7826Y2886D01*
X7822Y2896D01*
X7826Y2905D01*
X7842Y2925D01*
X7859Y2955D01*
X7869Y2988D01*
X7872Y3023D01*
X7869Y3057D01*
X7859Y3090D01*
X7842Y3120D01*
X7826Y3140D01*
X7822Y3150D01*
X7826Y3159D01*
X7842Y3179D01*
X7859Y3209D01*
X7869Y3242D01*
X7872Y3277D01*
X7869Y3311D01*
X7859Y3344D01*
X7842Y3374D01*
X7826Y3394D01*
X7822Y3404D01*
X7826Y3413D01*
X7842Y3433D01*
X7859Y3463D01*
X7869Y3496D01*
X7872Y3531D01*
X7869Y3565D01*
X7859Y3598D01*
X7846Y3621D01*
X7854Y3634D01*
X7875D01*
X7965Y3544D01*
D02*
G37*
G36*
X7535Y3119D02*
X7542Y3106D01*
X7534Y3090D01*
X7524Y3057D01*
X7520Y3023D01*
X7524Y2988D01*
X7534Y2955D01*
X7550Y2925D01*
X7566Y2905D01*
X7571Y2896D01*
X7566Y2886D01*
X7550Y2866D01*
X7534Y2836D01*
X7524Y2803D01*
X7520Y2769D01*
X7524Y2734D01*
X7534Y2701D01*
X7550Y2671D01*
X7566Y2651D01*
X7571Y2642D01*
X7566Y2632D01*
X7550Y2612D01*
X7534Y2582D01*
X7524Y2549D01*
X7520Y2515D01*
X7524Y2480D01*
X7534Y2447D01*
X7550Y2417D01*
X7566Y2397D01*
X7571Y2388D01*
X7566Y2378D01*
X7550Y2358D01*
X7534Y2328D01*
X7524Y2295D01*
X7520Y2261D01*
X7524Y2226D01*
X7534Y2193D01*
X7550Y2163D01*
X7566Y2143D01*
X7571Y2134D01*
X7566Y2124D01*
X7550Y2104D01*
X7534Y2074D01*
X7524Y2041D01*
X7520Y2007D01*
X7524Y1972D01*
X7534Y1939D01*
X7550Y1909D01*
X7566Y1889D01*
X7571Y1880D01*
X7566Y1870D01*
X7550Y1850D01*
X7534Y1820D01*
X7524Y1787D01*
X7520Y1753D01*
X7524Y1718D01*
X7534Y1685D01*
X7550Y1655D01*
X7566Y1635D01*
X7571Y1626D01*
X7566Y1616D01*
X7550Y1596D01*
X7534Y1566D01*
X7524Y1533D01*
X7520Y1499D01*
X7524Y1464D01*
X7533Y1432D01*
X7533Y1429D01*
X7528Y1420D01*
X7521D01*
Y1070D01*
X7698D01*
X7703Y1058D01*
X7558Y913D01*
X7106D01*
X7102Y924D01*
X7424Y1247D01*
X7443Y1270D01*
X7457Y1296D01*
X7466Y1324D01*
X7468Y1354D01*
Y3061D01*
X7528Y3120D01*
X7535Y3119D01*
D02*
G37*
%LPC*%
G36*
X4394Y4696D02*
X4345Y4691D01*
X4298Y4677D01*
X4255Y4654D01*
X4217Y4623D01*
X4185Y4585D01*
X4162Y4541D01*
X4148Y4494D01*
X4143Y4445D01*
X4148Y4396D01*
X4162Y4349D01*
X4185Y4305D01*
X4217Y4267D01*
X4255Y4236D01*
X4298Y4213D01*
X4345Y4199D01*
X4394Y4194D01*
X4443Y4199D01*
X4490Y4213D01*
X4534Y4236D01*
X4572Y4267D01*
X4603Y4305D01*
X4626Y4349D01*
X4641Y4396D01*
X4645Y4445D01*
X4641Y4494D01*
X4626Y4541D01*
X4603Y4585D01*
X4572Y4623D01*
X4534Y4654D01*
X4490Y4677D01*
X4443Y4691D01*
X4394Y4696D01*
D02*
G37*
%LPD*%
D12*
X0Y9500D02*
X9004D01*
Y0D02*
Y9500D01*
X0Y0D02*
X9004D01*
X0D02*
Y9500D01*
D19*
X7696Y3785D02*
X7938D01*
X8115Y1257D02*
Y3607D01*
X7938Y3785D02*
X8115Y3607D01*
X8458Y1219D02*
Y3594D01*
X8014Y4039D02*
X8458Y3594D01*
X7696Y4039D02*
X8014D01*
X7620Y762D02*
X8115Y1257D01*
X4369Y762D02*
X7620D01*
X2781Y2350D02*
X4369Y762D01*
X7772Y533D02*
X8458Y1219D01*
X3495Y533D02*
X7772D01*
X2731Y1298D02*
X3495Y533D01*
X1628Y1336D02*
X1780D01*
X1613Y1321D02*
X1628Y1336D01*
X1780D02*
X1968Y1524D01*
X2008Y2350D02*
X2019D01*
X1983Y2375D02*
X2008Y2350D01*
X851Y2375D02*
X1983D01*
X5575Y2515D02*
X5906D01*
X3861Y4229D02*
X5575Y2515D01*
X3861Y4229D02*
Y6439D01*
X4254Y6833D01*
X1651Y3594D02*
X1778Y3467D01*
Y3289D02*
Y3467D01*
Y3289D02*
X2019Y3048D01*
X5906Y5055D02*
X6160D01*
X6439Y5334D01*
Y6947D01*
X6185Y5461D02*
Y6947D01*
X6033Y5309D02*
X6185Y5461D01*
X5906Y5309D02*
X6033D01*
X6947Y4826D02*
Y6947D01*
X6668Y4547D02*
X6947Y4826D01*
X5906Y4547D02*
X6668D01*
X4254Y6833D02*
X4381D01*
Y7341D02*
X4981D01*
X5424Y6898D01*
Y4047D02*
Y6898D01*
Y4047D02*
X5686Y3785D01*
X5906D01*
X5291Y3277D02*
X5906D01*
X4990Y3578D02*
X5291Y3277D01*
X4990Y3578D02*
Y5869D01*
X4534Y6325D02*
X4990Y5869D01*
X4381Y6325D02*
X4534D01*
X4381Y6579D02*
X4570D01*
X5190Y5959D01*
Y3662D02*
Y5959D01*
Y3662D02*
X5321Y3531D01*
X5906D01*
X2731Y1298D02*
Y1524D01*
X7471Y3277D02*
X7696D01*
X7318Y3123D02*
X7471Y3277D01*
X7318Y1354D02*
Y3123D01*
X6967Y1003D02*
X7318Y1354D01*
X4826Y1003D02*
X6967D01*
X2781Y3048D02*
X4826Y1003D01*
X7455Y6947D02*
Y7112D01*
X7247Y7320D02*
X7455Y7112D01*
X5842Y7320D02*
X7247D01*
X5679Y7158D02*
X5842Y7320D01*
X5679Y5651D02*
Y7158D01*
Y5651D02*
X5768Y5563D01*
X5906D01*
X597Y2083D02*
Y2375D01*
Y2083D02*
X1359Y1321D01*
X597Y2375D02*
Y2794D01*
X1397Y3594D01*
X5906Y4801D02*
X6540D01*
X6693Y4953D01*
Y6947D01*
X7709D02*
X7922Y6734D01*
Y5144D02*
Y6734D01*
X7833Y5055D02*
X7922Y5144D01*
X7696Y5055D02*
X7833D01*
D20*
X7696Y6071D02*
D03*
Y5817D02*
D03*
Y5563D02*
D03*
Y5309D02*
D03*
Y5055D02*
D03*
Y4801D02*
D03*
Y4547D02*
D03*
Y4293D02*
D03*
Y4039D02*
D03*
Y3785D02*
D03*
Y3531D02*
D03*
Y3277D02*
D03*
Y3023D02*
D03*
Y2769D02*
D03*
Y2515D02*
D03*
Y2261D02*
D03*
Y2007D02*
D03*
Y1753D02*
D03*
Y1499D02*
D03*
X5906D02*
D03*
Y1753D02*
D03*
Y2007D02*
D03*
Y2261D02*
D03*
Y2515D02*
D03*
Y2769D02*
D03*
Y3023D02*
D03*
Y3277D02*
D03*
Y3531D02*
D03*
Y3785D02*
D03*
Y4039D02*
D03*
Y4293D02*
D03*
Y4547D02*
D03*
Y4801D02*
D03*
Y5055D02*
D03*
Y5309D02*
D03*
Y5563D02*
D03*
Y5817D02*
D03*
Y6071D02*
D03*
X7455Y6947D02*
D03*
X7201D02*
D03*
X6947D02*
D03*
X6693D02*
D03*
X6439D02*
D03*
X6185D02*
D03*
X5931D02*
D03*
X4381Y7087D02*
D03*
Y6833D02*
D03*
Y6579D02*
D03*
Y6325D02*
D03*
Y6071D02*
D03*
Y5817D02*
D03*
Y5563D02*
D03*
D21*
X7696Y1245D02*
D03*
X5906D02*
D03*
X4381Y7341D02*
D03*
D22*
X4394Y4445D02*
D03*
Y8522D02*
D03*
X330Y4458D02*
D03*
Y8522D02*
D03*
X400Y9100D02*
D03*
X8600D02*
D03*
Y400D02*
D03*
X400D02*
D03*
D23*
X597Y2375D02*
D03*
X851D02*
D03*
X1613Y1321D02*
D03*
X1359D02*
D03*
X1651Y3594D02*
D03*
X1397D02*
D03*
D24*
X1968Y1524D02*
D03*
X2731D02*
D03*
X2019Y2350D02*
D03*
X2781D02*
D03*
X2019Y3048D02*
D03*
X2781D02*
D03*
D25*
X7709Y6947D02*
D03*
M02*
