G04*
G04 #@! TF.GenerationSoftware,Altium Limited,Altium Designer,19.0.15 (446)*
G04*
G04 Layer_Physical_Order=2*
G04 Layer_Color=16711680*
%FSLAX42Y42*%
%MOMM*%
G71*
G01*
G75*
%ADD19C,1.00*%
%ADD20C,1.50*%
%ADD21R,1.50X1.50*%
%ADD22C,1.52*%
%ADD23C,1.78*%
%ADD24C,1.40*%
%ADD25R,1.50X1.50*%
G36*
X9004Y0D02*
X0D01*
Y9500D01*
X9004D01*
Y0D01*
D02*
G37*
%LPC*%
G36*
X8600Y9326D02*
X8556Y9322D01*
X8513Y9309D01*
X8474Y9288D01*
X8440Y9260D01*
X8412Y9226D01*
X8391Y9187D01*
X8378Y9144D01*
X8374Y9100D01*
X8378Y9056D01*
X8391Y9013D01*
X8412Y8974D01*
X8440Y8940D01*
X8474Y8912D01*
X8513Y8891D01*
X8556Y8878D01*
X8600Y8874D01*
X8644Y8878D01*
X8687Y8891D01*
X8726Y8912D01*
X8760Y8940D01*
X8788Y8974D01*
X8809Y9013D01*
X8822Y9056D01*
X8826Y9100D01*
X8822Y9144D01*
X8809Y9187D01*
X8788Y9226D01*
X8760Y9260D01*
X8726Y9288D01*
X8687Y9309D01*
X8644Y9322D01*
X8600Y9326D01*
D02*
G37*
G36*
X400D02*
X356Y9322D01*
X313Y9309D01*
X274Y9288D01*
X240Y9260D01*
X212Y9226D01*
X191Y9187D01*
X178Y9144D01*
X174Y9100D01*
X178Y9056D01*
X191Y9013D01*
X212Y8974D01*
X240Y8940D01*
X274Y8912D01*
X313Y8891D01*
X356Y8878D01*
X400Y8874D01*
X444Y8878D01*
X487Y8891D01*
X526Y8912D01*
X560Y8940D01*
X588Y8974D01*
X609Y9013D01*
X622Y9056D01*
X626Y9100D01*
X622Y9144D01*
X609Y9187D01*
X588Y9226D01*
X560Y9260D01*
X526Y9288D01*
X487Y9309D01*
X444Y9322D01*
X400Y9326D01*
D02*
G37*
G36*
X4394Y8773D02*
X4345Y8768D01*
X4298Y8754D01*
X4255Y8731D01*
X4217Y8699D01*
X4185Y8661D01*
X4162Y8618D01*
X4148Y8571D01*
X4143Y8522D01*
X4148Y8473D01*
X4162Y8426D01*
X4185Y8382D01*
X4217Y8344D01*
X4255Y8313D01*
X4298Y8290D01*
X4345Y8275D01*
X4394Y8270D01*
X4443Y8275D01*
X4490Y8290D01*
X4534Y8313D01*
X4572Y8344D01*
X4603Y8382D01*
X4626Y8426D01*
X4641Y8473D01*
X4645Y8522D01*
X4641Y8571D01*
X4626Y8618D01*
X4603Y8661D01*
X4572Y8699D01*
X4534Y8731D01*
X4490Y8754D01*
X4443Y8768D01*
X4394Y8773D01*
D02*
G37*
G36*
X330D02*
X281Y8768D01*
X234Y8754D01*
X191Y8731D01*
X153Y8699D01*
X121Y8661D01*
X98Y8618D01*
X84Y8571D01*
X79Y8522D01*
X84Y8473D01*
X98Y8426D01*
X121Y8382D01*
X153Y8344D01*
X191Y8313D01*
X234Y8290D01*
X281Y8275D01*
X330Y8270D01*
X379Y8275D01*
X426Y8290D01*
X470Y8313D01*
X508Y8344D01*
X539Y8382D01*
X562Y8426D01*
X577Y8473D01*
X581Y8522D01*
X577Y8571D01*
X562Y8618D01*
X539Y8661D01*
X508Y8699D01*
X470Y8731D01*
X426Y8754D01*
X379Y8768D01*
X330Y8773D01*
D02*
G37*
G36*
Y4709D02*
X281Y4704D01*
X234Y4690D01*
X191Y4667D01*
X153Y4635D01*
X121Y4597D01*
X98Y4554D01*
X84Y4507D01*
X79Y4458D01*
X84Y4409D01*
X98Y4362D01*
X121Y4318D01*
X153Y4280D01*
X191Y4249D01*
X234Y4226D01*
X281Y4211D01*
X330Y4206D01*
X379Y4211D01*
X426Y4226D01*
X470Y4249D01*
X508Y4280D01*
X539Y4318D01*
X562Y4362D01*
X577Y4409D01*
X581Y4458D01*
X577Y4507D01*
X562Y4554D01*
X539Y4597D01*
X508Y4635D01*
X470Y4667D01*
X426Y4690D01*
X379Y4704D01*
X330Y4709D01*
D02*
G37*
G36*
X4394Y4696D02*
X4345Y4691D01*
X4298Y4677D01*
X4255Y4654D01*
X4217Y4623D01*
X4185Y4585D01*
X4162Y4541D01*
X4148Y4494D01*
X4143Y4445D01*
X4148Y4396D01*
X4162Y4349D01*
X4185Y4305D01*
X4217Y4267D01*
X4255Y4236D01*
X4298Y4213D01*
X4345Y4199D01*
X4394Y4194D01*
X4443Y4199D01*
X4490Y4213D01*
X4534Y4236D01*
X4572Y4267D01*
X4603Y4305D01*
X4626Y4349D01*
X4641Y4396D01*
X4645Y4445D01*
X4641Y4494D01*
X4626Y4541D01*
X4603Y4585D01*
X4572Y4623D01*
X4534Y4654D01*
X4490Y4677D01*
X4443Y4691D01*
X4394Y4696D01*
D02*
G37*
G36*
X2781Y3219D02*
X2748Y3216D01*
X2716Y3206D01*
X2686Y3190D01*
X2661Y3169D01*
X2639Y3143D01*
X2623Y3113D01*
X2614Y3081D01*
X2610Y3048D01*
X2614Y3015D01*
X2623Y2983D01*
X2639Y2953D01*
X2661Y2927D01*
X2686Y2906D01*
X2716Y2890D01*
X2748Y2880D01*
X2781Y2877D01*
X2815Y2880D01*
X2847Y2890D01*
X2876Y2906D01*
X2902Y2927D01*
X2923Y2953D01*
X2939Y2983D01*
X2949Y3015D01*
X2952Y3048D01*
X2949Y3081D01*
X2939Y3113D01*
X2923Y3143D01*
X2902Y3169D01*
X2876Y3190D01*
X2847Y3206D01*
X2815Y3216D01*
X2781Y3219D01*
D02*
G37*
G36*
X2019D02*
X1986Y3216D01*
X1954Y3206D01*
X1924Y3190D01*
X1899Y3169D01*
X1877Y3143D01*
X1861Y3113D01*
X1852Y3081D01*
X1848Y3048D01*
X1852Y3015D01*
X1861Y2983D01*
X1877Y2953D01*
X1899Y2927D01*
X1924Y2906D01*
X1954Y2890D01*
X1986Y2880D01*
X2019Y2877D01*
X2053Y2880D01*
X2085Y2890D01*
X2114Y2906D01*
X2140Y2927D01*
X2161Y2953D01*
X2177Y2983D01*
X2187Y3015D01*
X2190Y3048D01*
X2187Y3081D01*
X2177Y3113D01*
X2161Y3143D01*
X2140Y3169D01*
X2114Y3190D01*
X2085Y3206D01*
X2053Y3216D01*
X2019Y3219D01*
D02*
G37*
G36*
X851Y2565D02*
X814Y2561D01*
X778Y2550D01*
X745Y2533D01*
X724Y2515D01*
X702Y2533D01*
X670Y2550D01*
X634Y2561D01*
X597Y2565D01*
X560Y2561D01*
X524Y2550D01*
X491Y2533D01*
X463Y2509D01*
X439Y2480D01*
X422Y2448D01*
X411Y2412D01*
X407Y2375D01*
X411Y2338D01*
X422Y2302D01*
X439Y2269D01*
X463Y2241D01*
X491Y2217D01*
X524Y2200D01*
X560Y2189D01*
X597Y2185D01*
X634Y2189D01*
X670Y2200D01*
X702Y2217D01*
X724Y2235D01*
X745Y2217D01*
X778Y2200D01*
X814Y2189D01*
X851Y2185D01*
X888Y2189D01*
X924Y2200D01*
X956Y2217D01*
X985Y2241D01*
X1009Y2269D01*
X1026Y2302D01*
X1037Y2338D01*
X1041Y2375D01*
X1037Y2412D01*
X1026Y2448D01*
X1009Y2480D01*
X985Y2509D01*
X956Y2533D01*
X924Y2550D01*
X888Y2561D01*
X851Y2565D01*
D02*
G37*
G36*
X2781Y2520D02*
X2748Y2517D01*
X2716Y2507D01*
X2686Y2492D01*
X2661Y2470D01*
X2639Y2444D01*
X2623Y2415D01*
X2614Y2383D01*
X2610Y2350D01*
X2614Y2316D01*
X2623Y2284D01*
X2639Y2255D01*
X2661Y2229D01*
X2686Y2207D01*
X2716Y2192D01*
X2748Y2182D01*
X2781Y2179D01*
X2815Y2182D01*
X2847Y2192D01*
X2876Y2207D01*
X2902Y2229D01*
X2923Y2255D01*
X2939Y2284D01*
X2949Y2316D01*
X2952Y2350D01*
X2949Y2383D01*
X2939Y2415D01*
X2923Y2444D01*
X2902Y2470D01*
X2876Y2492D01*
X2847Y2507D01*
X2815Y2517D01*
X2781Y2520D01*
D02*
G37*
G36*
X2019D02*
X1986Y2517D01*
X1954Y2507D01*
X1924Y2492D01*
X1899Y2470D01*
X1877Y2444D01*
X1861Y2415D01*
X1852Y2383D01*
X1848Y2350D01*
X1852Y2316D01*
X1861Y2284D01*
X1877Y2255D01*
X1899Y2229D01*
X1924Y2207D01*
X1954Y2192D01*
X1986Y2182D01*
X2019Y2179D01*
X2053Y2182D01*
X2085Y2192D01*
X2114Y2207D01*
X2140Y2229D01*
X2161Y2255D01*
X2177Y2284D01*
X2187Y2316D01*
X2190Y2350D01*
X2187Y2383D01*
X2177Y2415D01*
X2161Y2444D01*
X2140Y2470D01*
X2114Y2492D01*
X2085Y2507D01*
X2053Y2517D01*
X2019Y2520D01*
D02*
G37*
G36*
X1613Y1511D02*
X1576Y1507D01*
X1540Y1496D01*
X1507Y1479D01*
X1486Y1461D01*
X1464Y1479D01*
X1432Y1496D01*
X1396Y1507D01*
X1359Y1511D01*
X1322Y1507D01*
X1286Y1496D01*
X1253Y1479D01*
X1225Y1455D01*
X1201Y1426D01*
X1184Y1393D01*
X1173Y1358D01*
X1169Y1321D01*
X1173Y1284D01*
X1184Y1248D01*
X1201Y1215D01*
X1225Y1187D01*
X1253Y1163D01*
X1286Y1145D01*
X1322Y1135D01*
X1359Y1131D01*
X1396Y1135D01*
X1432Y1145D01*
X1464Y1163D01*
X1486Y1181D01*
X1507Y1163D01*
X1540Y1145D01*
X1576Y1135D01*
X1613Y1131D01*
X1650Y1135D01*
X1686Y1145D01*
X1718Y1163D01*
X1747Y1187D01*
X1771Y1215D01*
X1788Y1248D01*
X1799Y1284D01*
X1803Y1321D01*
X1799Y1358D01*
X1788Y1393D01*
X1771Y1426D01*
X1747Y1455D01*
X1718Y1479D01*
X1686Y1496D01*
X1650Y1507D01*
X1613Y1511D01*
D02*
G37*
G36*
X2731Y1695D02*
X2697Y1692D01*
X2665Y1682D01*
X2636Y1666D01*
X2610Y1645D01*
X2588Y1619D01*
X2573Y1589D01*
X2563Y1557D01*
X2560Y1524D01*
X2563Y1491D01*
X2573Y1459D01*
X2588Y1429D01*
X2610Y1403D01*
X2636Y1382D01*
X2665Y1366D01*
X2697Y1356D01*
X2731Y1353D01*
X2764Y1356D01*
X2796Y1366D01*
X2825Y1382D01*
X2851Y1403D01*
X2873Y1429D01*
X2888Y1459D01*
X2898Y1491D01*
X2901Y1524D01*
X2898Y1557D01*
X2888Y1589D01*
X2873Y1619D01*
X2851Y1645D01*
X2825Y1666D01*
X2796Y1682D01*
X2764Y1692D01*
X2731Y1695D01*
D02*
G37*
G36*
X1968D02*
X1935Y1692D01*
X1903Y1682D01*
X1874Y1666D01*
X1848Y1645D01*
X1826Y1619D01*
X1811Y1589D01*
X1801Y1557D01*
X1798Y1524D01*
X1801Y1491D01*
X1811Y1459D01*
X1826Y1429D01*
X1848Y1403D01*
X1874Y1382D01*
X1903Y1366D01*
X1935Y1356D01*
X1968Y1353D01*
X2002Y1356D01*
X2034Y1366D01*
X2063Y1382D01*
X2089Y1403D01*
X2111Y1429D01*
X2126Y1459D01*
X2136Y1491D01*
X2139Y1524D01*
X2136Y1557D01*
X2126Y1589D01*
X2111Y1619D01*
X2089Y1645D01*
X2063Y1666D01*
X2034Y1682D01*
X2002Y1692D01*
X1968Y1695D01*
D02*
G37*
G36*
X4556Y7516D02*
X4206D01*
Y7166D01*
X4213D01*
X4219Y7156D01*
X4219Y7153D01*
X4209Y7121D01*
X4206Y7087D01*
X4209Y7052D01*
X4219Y7019D01*
X4235Y6989D01*
X4252Y6969D01*
X4256Y6960D01*
X4252Y6950D01*
X4235Y6930D01*
X4219Y6900D01*
X4209Y6867D01*
X4206Y6833D01*
X4209Y6798D01*
X4219Y6765D01*
X4235Y6735D01*
X4252Y6715D01*
X4256Y6706D01*
X4252Y6696D01*
X4235Y6676D01*
X4219Y6646D01*
X4209Y6613D01*
X4206Y6579D01*
X4209Y6544D01*
X4219Y6511D01*
X4235Y6481D01*
X4252Y6461D01*
X4256Y6452D01*
X4252Y6442D01*
X4235Y6422D01*
X4219Y6392D01*
X4209Y6359D01*
X4206Y6325D01*
X4209Y6290D01*
X4219Y6257D01*
X4235Y6227D01*
X4252Y6207D01*
X4256Y6198D01*
X4252Y6188D01*
X4235Y6168D01*
X4219Y6138D01*
X4209Y6105D01*
X4206Y6071D01*
X4209Y6036D01*
X4219Y6003D01*
X4235Y5973D01*
X4252Y5953D01*
X4256Y5944D01*
X4252Y5934D01*
X4235Y5914D01*
X4219Y5884D01*
X4209Y5851D01*
X4206Y5817D01*
X4209Y5782D01*
X4219Y5749D01*
X4231Y5726D01*
X4224Y5713D01*
X3127D01*
X3097Y5710D01*
X3069Y5702D01*
X3043Y5688D01*
X3020Y5669D01*
X1290Y3939D01*
X1272Y3917D01*
X1258Y3891D01*
X1249Y3862D01*
X1246Y3833D01*
Y3708D01*
X1239Y3700D01*
X1222Y3667D01*
X1211Y3631D01*
X1207Y3594D01*
X1211Y3557D01*
X1222Y3521D01*
X1239Y3489D01*
X1263Y3460D01*
X1292Y3436D01*
X1324Y3419D01*
X1360Y3408D01*
X1397Y3404D01*
X1434Y3408D01*
X1470Y3419D01*
X1502Y3436D01*
X1524Y3454D01*
X1546Y3436D01*
X1578Y3419D01*
X1614Y3408D01*
X1651Y3404D01*
X1688Y3408D01*
X1724Y3419D01*
X1756Y3436D01*
X1785Y3460D01*
X1809Y3489D01*
X1826Y3521D01*
X1837Y3557D01*
X1841Y3594D01*
X1837Y3631D01*
X1826Y3667D01*
X1809Y3700D01*
X1785Y3728D01*
X1756Y3752D01*
X1724Y3769D01*
X1688Y3780D01*
X1651Y3784D01*
X1614Y3780D01*
X1578Y3769D01*
X1568Y3764D01*
X1554Y3771D01*
X1554Y3776D01*
X3189Y5412D01*
X4292D01*
X4314Y5400D01*
X4347Y5390D01*
X4381Y5387D01*
X4416Y5390D01*
X4449Y5400D01*
X4471Y5412D01*
X5748D01*
X5755Y5399D01*
X5743Y5376D01*
X5733Y5343D01*
X5730Y5309D01*
X5733Y5274D01*
X5743Y5241D01*
X5759Y5211D01*
X5776Y5191D01*
X5780Y5182D01*
X5776Y5172D01*
X5759Y5152D01*
X5743Y5122D01*
X5733Y5089D01*
X5730Y5055D01*
X5733Y5020D01*
X5743Y4987D01*
X5759Y4957D01*
X5776Y4937D01*
X5780Y4928D01*
X5776Y4918D01*
X5759Y4898D01*
X5743Y4868D01*
X5733Y4835D01*
X5730Y4801D01*
X5733Y4766D01*
X5743Y4733D01*
X5759Y4703D01*
X5776Y4683D01*
X5780Y4674D01*
X5776Y4664D01*
X5759Y4644D01*
X5743Y4614D01*
X5733Y4581D01*
X5730Y4547D01*
X5733Y4512D01*
X5743Y4479D01*
X5759Y4449D01*
X5776Y4429D01*
X5780Y4420D01*
X5776Y4410D01*
X5759Y4390D01*
X5743Y4360D01*
X5733Y4327D01*
X5730Y4293D01*
X5733Y4258D01*
X5743Y4225D01*
X5759Y4195D01*
X5776Y4175D01*
X5780Y4166D01*
X5776Y4156D01*
X5759Y4136D01*
X5743Y4106D01*
X5733Y4073D01*
X5730Y4039D01*
X5733Y4004D01*
X5743Y3971D01*
X5759Y3941D01*
X5776Y3921D01*
X5780Y3912D01*
X5776Y3902D01*
X5759Y3882D01*
X5743Y3852D01*
X5733Y3819D01*
X5730Y3785D01*
X5733Y3750D01*
X5743Y3717D01*
X5759Y3687D01*
X5776Y3667D01*
X5780Y3658D01*
X5776Y3648D01*
X5759Y3628D01*
X5743Y3598D01*
X5733Y3565D01*
X5730Y3531D01*
X5733Y3496D01*
X5743Y3463D01*
X5759Y3433D01*
X5776Y3413D01*
X5780Y3404D01*
X5776Y3394D01*
X5759Y3374D01*
X5743Y3344D01*
X5733Y3311D01*
X5730Y3277D01*
X5733Y3242D01*
X5743Y3209D01*
X5759Y3179D01*
X5776Y3159D01*
X5780Y3150D01*
X5776Y3140D01*
X5759Y3120D01*
X5743Y3090D01*
X5733Y3057D01*
X5730Y3023D01*
X5733Y2988D01*
X5743Y2955D01*
X5759Y2925D01*
X5776Y2905D01*
X5780Y2896D01*
X5776Y2886D01*
X5759Y2866D01*
X5743Y2836D01*
X5733Y2803D01*
X5730Y2769D01*
X5733Y2734D01*
X5743Y2701D01*
X5759Y2671D01*
X5776Y2651D01*
X5780Y2642D01*
X5776Y2632D01*
X5759Y2612D01*
X5743Y2582D01*
X5733Y2549D01*
X5730Y2515D01*
X5733Y2480D01*
X5743Y2447D01*
X5759Y2417D01*
X5776Y2397D01*
X5780Y2388D01*
X5776Y2378D01*
X5759Y2358D01*
X5743Y2328D01*
X5733Y2295D01*
X5730Y2261D01*
X5733Y2226D01*
X5743Y2193D01*
X5759Y2163D01*
X5776Y2143D01*
X5780Y2134D01*
X5776Y2124D01*
X5759Y2104D01*
X5743Y2074D01*
X5733Y2041D01*
X5730Y2007D01*
X5733Y1972D01*
X5743Y1939D01*
X5759Y1909D01*
X5776Y1889D01*
X5780Y1880D01*
X5776Y1870D01*
X5759Y1850D01*
X5743Y1820D01*
X5733Y1787D01*
X5730Y1753D01*
X5733Y1718D01*
X5743Y1685D01*
X5759Y1655D01*
X5776Y1635D01*
X5780Y1626D01*
X5776Y1616D01*
X5759Y1596D01*
X5743Y1566D01*
X5733Y1533D01*
X5730Y1499D01*
X5733Y1464D01*
X5743Y1432D01*
X5743Y1429D01*
X5737Y1420D01*
X5731D01*
Y1070D01*
X6081D01*
Y1420D01*
X6074D01*
X6068Y1429D01*
X6068Y1432D01*
X6078Y1464D01*
X6081Y1499D01*
X6078Y1533D01*
X6068Y1566D01*
X6052Y1596D01*
X6035Y1616D01*
X6031Y1626D01*
X6035Y1635D01*
X6052Y1655D01*
X6068Y1685D01*
X6078Y1718D01*
X6081Y1753D01*
X6078Y1787D01*
X6068Y1820D01*
X6052Y1850D01*
X6035Y1870D01*
X6031Y1880D01*
X6035Y1889D01*
X6052Y1909D01*
X6068Y1939D01*
X6078Y1972D01*
X6081Y2007D01*
X6078Y2041D01*
X6068Y2074D01*
X6052Y2104D01*
X6035Y2124D01*
X6031Y2134D01*
X6035Y2143D01*
X6052Y2163D01*
X6068Y2193D01*
X6078Y2226D01*
X6081Y2261D01*
X6078Y2295D01*
X6068Y2328D01*
X6052Y2358D01*
X6035Y2378D01*
X6031Y2388D01*
X6035Y2397D01*
X6052Y2417D01*
X6068Y2447D01*
X6078Y2480D01*
X6081Y2515D01*
X6078Y2549D01*
X6068Y2582D01*
X6056Y2605D01*
X6063Y2618D01*
X6734D01*
X6763Y2621D01*
X6791Y2629D01*
X6817Y2643D01*
X6840Y2662D01*
X7120Y2941D01*
X7138Y2964D01*
X7152Y2990D01*
X7161Y3019D01*
X7164Y3048D01*
Y5681D01*
X7513Y6029D01*
X7527Y6026D01*
X7534Y6003D01*
X7550Y5973D01*
X7566Y5953D01*
X7571Y5944D01*
X7566Y5934D01*
X7550Y5914D01*
X7534Y5884D01*
X7524Y5851D01*
X7520Y5817D01*
X7524Y5782D01*
X7534Y5749D01*
X7550Y5719D01*
X7566Y5699D01*
X7571Y5690D01*
X7566Y5680D01*
X7550Y5660D01*
X7534Y5630D01*
X7524Y5597D01*
X7520Y5563D01*
X7524Y5528D01*
X7534Y5495D01*
X7550Y5465D01*
X7566Y5445D01*
X7571Y5436D01*
X7566Y5426D01*
X7550Y5406D01*
X7534Y5376D01*
X7524Y5343D01*
X7520Y5309D01*
X7524Y5274D01*
X7534Y5241D01*
X7550Y5211D01*
X7566Y5191D01*
X7571Y5182D01*
X7566Y5172D01*
X7550Y5152D01*
X7534Y5122D01*
X7524Y5089D01*
X7520Y5055D01*
X7524Y5020D01*
X7534Y4987D01*
X7550Y4957D01*
X7566Y4937D01*
X7571Y4928D01*
X7566Y4918D01*
X7550Y4898D01*
X7534Y4868D01*
X7524Y4835D01*
X7520Y4801D01*
X7524Y4766D01*
X7534Y4733D01*
X7550Y4703D01*
X7566Y4683D01*
X7571Y4674D01*
X7566Y4664D01*
X7550Y4644D01*
X7534Y4614D01*
X7524Y4581D01*
X7520Y4547D01*
X7524Y4512D01*
X7534Y4479D01*
X7550Y4449D01*
X7566Y4429D01*
X7571Y4420D01*
X7566Y4410D01*
X7550Y4390D01*
X7534Y4360D01*
X7524Y4327D01*
X7520Y4293D01*
X7524Y4258D01*
X7534Y4225D01*
X7550Y4195D01*
X7566Y4175D01*
X7571Y4166D01*
X7566Y4156D01*
X7550Y4136D01*
X7534Y4106D01*
X7524Y4073D01*
X7520Y4039D01*
X7524Y4004D01*
X7534Y3971D01*
X7550Y3941D01*
X7566Y3921D01*
X7571Y3912D01*
X7566Y3902D01*
X7550Y3882D01*
X7534Y3852D01*
X7524Y3819D01*
X7520Y3785D01*
X7524Y3750D01*
X7534Y3717D01*
X7550Y3687D01*
X7566Y3667D01*
X7571Y3658D01*
X7566Y3648D01*
X7550Y3628D01*
X7534Y3598D01*
X7524Y3565D01*
X7520Y3531D01*
X7524Y3496D01*
X7534Y3463D01*
X7550Y3433D01*
X7566Y3413D01*
X7571Y3404D01*
X7566Y3394D01*
X7550Y3374D01*
X7534Y3344D01*
X7524Y3311D01*
X7520Y3277D01*
X7524Y3242D01*
X7534Y3209D01*
X7550Y3179D01*
X7566Y3159D01*
X7571Y3150D01*
X7566Y3140D01*
X7550Y3120D01*
X7534Y3090D01*
X7524Y3057D01*
X7520Y3023D01*
X7524Y2988D01*
X7534Y2955D01*
X7550Y2925D01*
X7566Y2905D01*
X7571Y2896D01*
X7566Y2886D01*
X7550Y2866D01*
X7534Y2836D01*
X7524Y2803D01*
X7520Y2769D01*
X7524Y2734D01*
X7534Y2701D01*
X7550Y2671D01*
X7566Y2651D01*
X7571Y2642D01*
X7566Y2632D01*
X7550Y2612D01*
X7534Y2582D01*
X7524Y2549D01*
X7520Y2515D01*
X7524Y2480D01*
X7534Y2447D01*
X7550Y2417D01*
X7566Y2397D01*
X7571Y2388D01*
X7566Y2378D01*
X7550Y2358D01*
X7534Y2328D01*
X7524Y2295D01*
X7520Y2261D01*
X7524Y2226D01*
X7534Y2193D01*
X7550Y2163D01*
X7566Y2143D01*
X7571Y2134D01*
X7566Y2124D01*
X7550Y2104D01*
X7534Y2074D01*
X7524Y2041D01*
X7520Y2007D01*
X7524Y1972D01*
X7534Y1939D01*
X7550Y1909D01*
X7566Y1889D01*
X7571Y1880D01*
X7566Y1870D01*
X7550Y1850D01*
X7534Y1820D01*
X7524Y1787D01*
X7520Y1753D01*
X7524Y1718D01*
X7534Y1685D01*
X7550Y1655D01*
X7566Y1635D01*
X7571Y1626D01*
X7566Y1616D01*
X7550Y1596D01*
X7534Y1566D01*
X7524Y1533D01*
X7520Y1499D01*
X7524Y1464D01*
X7533Y1432D01*
X7533Y1429D01*
X7528Y1420D01*
X7521D01*
Y1070D01*
X7871D01*
Y1420D01*
X7865D01*
X7859Y1429D01*
X7859Y1432D01*
X7869Y1464D01*
X7872Y1499D01*
X7869Y1533D01*
X7859Y1566D01*
X7842Y1596D01*
X7826Y1616D01*
X7822Y1626D01*
X7826Y1635D01*
X7842Y1655D01*
X7859Y1685D01*
X7869Y1718D01*
X7872Y1753D01*
X7869Y1787D01*
X7859Y1820D01*
X7842Y1850D01*
X7826Y1870D01*
X7822Y1880D01*
X7826Y1889D01*
X7842Y1909D01*
X7859Y1939D01*
X7869Y1972D01*
X7872Y2007D01*
X7869Y2041D01*
X7859Y2074D01*
X7842Y2104D01*
X7826Y2124D01*
X7822Y2134D01*
X7826Y2143D01*
X7842Y2163D01*
X7859Y2193D01*
X7869Y2226D01*
X7872Y2261D01*
X7869Y2295D01*
X7859Y2328D01*
X7842Y2358D01*
X7826Y2378D01*
X7822Y2388D01*
X7826Y2397D01*
X7842Y2417D01*
X7859Y2447D01*
X7869Y2480D01*
X7872Y2515D01*
X7869Y2549D01*
X7859Y2582D01*
X7842Y2612D01*
X7826Y2632D01*
X7822Y2642D01*
X7826Y2651D01*
X7842Y2671D01*
X7859Y2701D01*
X7869Y2734D01*
X7872Y2769D01*
X7869Y2803D01*
X7859Y2836D01*
X7842Y2866D01*
X7826Y2886D01*
X7822Y2896D01*
X7826Y2905D01*
X7842Y2925D01*
X7859Y2955D01*
X7869Y2988D01*
X7872Y3023D01*
X7869Y3057D01*
X7859Y3090D01*
X7842Y3120D01*
X7826Y3140D01*
X7822Y3150D01*
X7826Y3159D01*
X7842Y3179D01*
X7859Y3209D01*
X7869Y3242D01*
X7872Y3277D01*
X7869Y3311D01*
X7859Y3344D01*
X7842Y3374D01*
X7826Y3394D01*
X7822Y3404D01*
X7826Y3413D01*
X7842Y3433D01*
X7859Y3463D01*
X7869Y3496D01*
X7872Y3531D01*
X7869Y3565D01*
X7859Y3598D01*
X7842Y3628D01*
X7826Y3648D01*
X7822Y3658D01*
X7826Y3667D01*
X7842Y3687D01*
X7859Y3717D01*
X7869Y3750D01*
X7872Y3785D01*
X7869Y3819D01*
X7859Y3852D01*
X7842Y3882D01*
X7826Y3902D01*
X7822Y3912D01*
X7826Y3921D01*
X7842Y3941D01*
X7859Y3971D01*
X7869Y4004D01*
X7872Y4039D01*
X7869Y4073D01*
X7859Y4106D01*
X7842Y4136D01*
X7826Y4156D01*
X7822Y4166D01*
X7826Y4175D01*
X7842Y4195D01*
X7859Y4225D01*
X7869Y4258D01*
X7872Y4293D01*
X7869Y4327D01*
X7859Y4360D01*
X7842Y4390D01*
X7826Y4410D01*
X7822Y4420D01*
X7826Y4429D01*
X7842Y4449D01*
X7859Y4479D01*
X7869Y4512D01*
X7872Y4547D01*
X7869Y4581D01*
X7859Y4614D01*
X7842Y4644D01*
X7826Y4664D01*
X7822Y4674D01*
X7826Y4683D01*
X7842Y4703D01*
X7859Y4733D01*
X7869Y4766D01*
X7872Y4801D01*
X7869Y4835D01*
X7859Y4868D01*
X7842Y4898D01*
X7826Y4918D01*
X7822Y4928D01*
X7826Y4937D01*
X7842Y4957D01*
X7859Y4987D01*
X7869Y5020D01*
X7872Y5055D01*
X7869Y5089D01*
X7859Y5122D01*
X7842Y5152D01*
X7826Y5172D01*
X7822Y5182D01*
X7826Y5191D01*
X7842Y5211D01*
X7859Y5241D01*
X7869Y5274D01*
X7872Y5309D01*
X7869Y5343D01*
X7859Y5376D01*
X7842Y5406D01*
X7826Y5426D01*
X7822Y5436D01*
X7826Y5445D01*
X7842Y5465D01*
X7859Y5495D01*
X7869Y5528D01*
X7872Y5563D01*
X7869Y5597D01*
X7859Y5630D01*
X7842Y5660D01*
X7826Y5680D01*
X7822Y5690D01*
X7826Y5699D01*
X7842Y5719D01*
X7859Y5749D01*
X7869Y5782D01*
X7872Y5817D01*
X7869Y5851D01*
X7859Y5884D01*
X7842Y5914D01*
X7826Y5934D01*
X7822Y5944D01*
X7826Y5953D01*
X7842Y5973D01*
X7859Y6003D01*
X7869Y6036D01*
X7872Y6071D01*
X7869Y6105D01*
X7859Y6138D01*
X7842Y6168D01*
X7821Y6195D01*
X7794Y6217D01*
X7763Y6233D01*
X7741Y6240D01*
X7737Y6254D01*
X8042Y6558D01*
X8060Y6581D01*
X8074Y6607D01*
X8083Y6636D01*
X8086Y6665D01*
Y7112D01*
X8083Y7141D01*
X8074Y7170D01*
X8060Y7196D01*
X8042Y7219D01*
X7869Y7391D01*
X7846Y7410D01*
X7820Y7424D01*
X7792Y7433D01*
X7762Y7435D01*
X5634D01*
X5634Y7435D01*
X5604Y7433D01*
X5576Y7424D01*
X5550Y7410D01*
X5527Y7391D01*
X5373Y7237D01*
X4556D01*
Y7516D01*
D02*
G37*
G36*
X8600Y626D02*
X8556Y622D01*
X8513Y609D01*
X8474Y588D01*
X8440Y560D01*
X8412Y526D01*
X8391Y487D01*
X8378Y444D01*
X8374Y400D01*
X8378Y356D01*
X8391Y313D01*
X8412Y274D01*
X8440Y240D01*
X8474Y212D01*
X8513Y191D01*
X8556Y178D01*
X8600Y174D01*
X8644Y178D01*
X8687Y191D01*
X8726Y212D01*
X8760Y240D01*
X8788Y274D01*
X8809Y313D01*
X8822Y356D01*
X8826Y400D01*
X8822Y444D01*
X8809Y487D01*
X8788Y526D01*
X8760Y560D01*
X8726Y588D01*
X8687Y609D01*
X8644Y622D01*
X8600Y626D01*
D02*
G37*
G36*
X400D02*
X356Y622D01*
X313Y609D01*
X274Y588D01*
X240Y560D01*
X212Y526D01*
X191Y487D01*
X178Y444D01*
X174Y400D01*
X178Y356D01*
X191Y313D01*
X212Y274D01*
X240Y240D01*
X274Y212D01*
X313Y191D01*
X356Y178D01*
X400Y174D01*
X444Y178D01*
X487Y191D01*
X526Y212D01*
X560Y240D01*
X588Y274D01*
X609Y313D01*
X622Y356D01*
X626Y400D01*
X622Y444D01*
X609Y487D01*
X588Y526D01*
X560Y560D01*
X526Y588D01*
X487Y609D01*
X444Y622D01*
X400Y626D01*
D02*
G37*
%LPD*%
G36*
X5916Y7121D02*
X5897Y7119D01*
X5864Y7109D01*
X5833Y7093D01*
X5807Y7071D01*
X5785Y7045D01*
X5768Y7014D01*
X5758Y6981D01*
X5755Y6947D01*
X5758Y6913D01*
X5768Y6880D01*
X5785Y6849D01*
X5807Y6823D01*
X5833Y6801D01*
X5853Y6790D01*
X5849Y6778D01*
X5144D01*
X5114Y6775D01*
X5086Y6766D01*
X5060Y6752D01*
X5037Y6733D01*
X4558Y6255D01*
X4557Y6255D01*
X4548Y6270D01*
X4554Y6290D01*
X4557Y6325D01*
X4554Y6359D01*
X4544Y6392D01*
X4528Y6422D01*
X4511Y6442D01*
X4507Y6452D01*
X4511Y6461D01*
X4528Y6481D01*
X4544Y6511D01*
X4554Y6544D01*
X4557Y6579D01*
X4554Y6613D01*
X4544Y6646D01*
X4528Y6676D01*
X4511Y6696D01*
X4507Y6706D01*
X4511Y6715D01*
X4528Y6735D01*
X4544Y6765D01*
X4554Y6798D01*
X4557Y6833D01*
X4554Y6867D01*
X4544Y6900D01*
X4532Y6923D01*
X4539Y6936D01*
X5436D01*
X5465Y6939D01*
X5493Y6947D01*
X5519Y6961D01*
X5542Y6980D01*
X5696Y7134D01*
X5916D01*
X5916Y7121D01*
D02*
G37*
G36*
X5763Y6173D02*
X5759Y6168D01*
X5743Y6138D01*
X5733Y6105D01*
X5730Y6071D01*
X5733Y6036D01*
X5743Y6003D01*
X5759Y5973D01*
X5776Y5953D01*
X5780Y5944D01*
X5776Y5934D01*
X5759Y5914D01*
X5743Y5884D01*
X5733Y5851D01*
X5730Y5817D01*
X5733Y5782D01*
X5743Y5749D01*
X5755Y5726D01*
X5748Y5713D01*
X4752D01*
X4747Y5725D01*
X5206Y6184D01*
X5757D01*
X5763Y6173D01*
D02*
G37*
G36*
X7523Y6466D02*
X6906Y5850D01*
X6888Y5827D01*
X6874Y5801D01*
X6865Y5772D01*
X6862Y5743D01*
Y3110D01*
X6671Y2919D01*
X6063D01*
X6056Y2932D01*
X6068Y2955D01*
X6078Y2988D01*
X6081Y3023D01*
X6078Y3057D01*
X6068Y3090D01*
X6052Y3120D01*
X6035Y3140D01*
X6031Y3150D01*
X6035Y3159D01*
X6052Y3179D01*
X6068Y3209D01*
X6078Y3242D01*
X6081Y3277D01*
X6078Y3311D01*
X6068Y3344D01*
X6052Y3374D01*
X6035Y3394D01*
X6031Y3404D01*
X6035Y3413D01*
X6052Y3433D01*
X6068Y3463D01*
X6078Y3496D01*
X6081Y3531D01*
X6078Y3565D01*
X6068Y3598D01*
X6052Y3628D01*
X6035Y3648D01*
X6031Y3658D01*
X6035Y3667D01*
X6052Y3687D01*
X6068Y3717D01*
X6078Y3750D01*
X6081Y3785D01*
X6078Y3819D01*
X6068Y3852D01*
X6055Y3876D01*
X6061Y3890D01*
X6072Y3891D01*
X6100Y3899D01*
X6126Y3913D01*
X6149Y3932D01*
X6238Y4021D01*
X6257Y4044D01*
X6271Y4070D01*
X6279Y4098D01*
X6282Y4128D01*
Y6172D01*
X6279Y6202D01*
X6271Y6230D01*
X6257Y6256D01*
X6238Y6279D01*
X6076Y6441D01*
X6053Y6460D01*
X6046Y6463D01*
X6050Y6476D01*
X7493D01*
X7517Y6479D01*
X7523Y6466D01*
D02*
G37*
D19*
X1397Y3594D02*
Y3833D01*
X3127Y5563D01*
X4381D01*
Y7087D02*
X5436D01*
X5634Y7285D01*
X7762D01*
X7935Y7112D01*
Y6665D02*
Y7112D01*
X7013Y5743D02*
X7935Y6665D01*
X7013Y3048D02*
Y5743D01*
X6734Y2769D02*
X7013Y3048D01*
X5906Y2769D02*
X6734D01*
X4381Y6071D02*
X4587D01*
X5144Y6627D01*
X7493D01*
X7709Y6843D01*
Y6947D01*
X4381Y5817D02*
X4625D01*
X5144Y6335D01*
X5969D01*
X6132Y6172D01*
Y4128D02*
Y6172D01*
X6043Y4039D02*
X6132Y4128D01*
X5906Y4039D02*
X6043D01*
X4381Y5563D02*
X5906D01*
D20*
X7696Y6071D02*
D03*
Y5817D02*
D03*
Y5563D02*
D03*
Y5309D02*
D03*
Y5055D02*
D03*
Y4801D02*
D03*
Y4547D02*
D03*
Y4293D02*
D03*
Y4039D02*
D03*
Y3785D02*
D03*
Y3531D02*
D03*
Y3277D02*
D03*
Y3023D02*
D03*
Y2769D02*
D03*
Y2515D02*
D03*
Y2261D02*
D03*
Y2007D02*
D03*
Y1753D02*
D03*
Y1499D02*
D03*
X5906D02*
D03*
Y1753D02*
D03*
Y2007D02*
D03*
Y2261D02*
D03*
Y2515D02*
D03*
Y2769D02*
D03*
Y3023D02*
D03*
Y3277D02*
D03*
Y3531D02*
D03*
Y3785D02*
D03*
Y4039D02*
D03*
Y4293D02*
D03*
Y4547D02*
D03*
Y4801D02*
D03*
Y5055D02*
D03*
Y5309D02*
D03*
Y5563D02*
D03*
Y5817D02*
D03*
Y6071D02*
D03*
X7455Y6947D02*
D03*
X7201D02*
D03*
X6947D02*
D03*
X6693D02*
D03*
X6439D02*
D03*
X6185D02*
D03*
X5931D02*
D03*
X4381Y7087D02*
D03*
Y6833D02*
D03*
Y6579D02*
D03*
Y6325D02*
D03*
Y6071D02*
D03*
Y5817D02*
D03*
Y5563D02*
D03*
D21*
X7696Y1245D02*
D03*
X5906D02*
D03*
X4381Y7341D02*
D03*
D22*
X4394Y4445D02*
D03*
Y8522D02*
D03*
X330Y4458D02*
D03*
Y8522D02*
D03*
X400Y9100D02*
D03*
X8600D02*
D03*
Y400D02*
D03*
X400D02*
D03*
D23*
X597Y2375D02*
D03*
X851D02*
D03*
X1613Y1321D02*
D03*
X1359D02*
D03*
X1651Y3594D02*
D03*
X1397D02*
D03*
D24*
X1968Y1524D02*
D03*
X2731D02*
D03*
X2019Y2350D02*
D03*
X2781D02*
D03*
X2019Y3048D02*
D03*
X2781D02*
D03*
D25*
X7709Y6947D02*
D03*
M02*
