M48
;Layer_Color=9474304
;FILE_FORMAT=4:2
METRIC,LZ
;TYPE=PLATED
T1F00S00C0.85
T2F00S00C0.90
T3F00S00C1.27
T4F00S00C2.50
T5F00S00C3.00
%
T01
X001968Y001524
X002731
X002781Y00235
Y003048
X002019
Y00235
T02
X005906Y001245
X007696
Y001499
Y001753
Y002007
Y002261
Y002515
Y002769
Y003023
Y003277
Y003531
Y003785
Y004039
Y004293
Y004547
Y004801
Y005055
Y005309
X005906
Y005055
Y004801
Y004547
Y004293
Y004039
Y003785
Y003531
Y003277
Y003023
Y002769
Y002515
Y002261
Y002007
Y001753
Y001499
X004381Y005563
Y005817
Y006071
Y006325
Y006579
Y006833
Y007087
Y007341
X005931Y006947
X006185
X006439
X006693
X006947
X007201
X007455
X007709
X007696Y006071
Y005817
Y005563
X005906
Y005817
Y006071
T03
X001359Y001321
X001613
X001651Y003594
X001397
X000851Y002375
X000597
T04
X0004Y0004
X0086
X0004Y0091
X0086
T05
X004394Y004445
X00033Y004458
Y008522
X004394
M30
