G04*
G04 #@! TF.GenerationSoftware,Altium Limited,Altium Designer,19.0.15 (446)*
G04*
G04 Layer_Color=255*
%FSLAX42Y42*%
%MOMM*%
G71*
G01*
G75*
%ADD21C,1.50*%
%ADD22R,1.50X1.50*%
%ADD23C,1.78*%
%ADD24C,3.50*%
%ADD25C,5.50*%
%ADD26C,1.40*%
D21*
X3023Y3785D02*
D03*
X2769D02*
D03*
X2515D02*
D03*
X2261D02*
D03*
X2007D02*
D03*
X1753D02*
D03*
X1499D02*
D03*
X4216Y3086D02*
D03*
X4470D02*
D03*
X4724D02*
D03*
X4978D02*
D03*
X5232D02*
D03*
X5486D02*
D03*
X5740D02*
D03*
X5994D02*
D03*
X6248D02*
D03*
X6502D02*
D03*
X6756D02*
D03*
X7010D02*
D03*
X7264D02*
D03*
X7518D02*
D03*
X7772D02*
D03*
X8026D02*
D03*
X8280D02*
D03*
X8534D02*
D03*
X8788D02*
D03*
X9042Y1308D02*
D03*
X8788D02*
D03*
X8534D02*
D03*
X8280D02*
D03*
X8026D02*
D03*
X7772D02*
D03*
X7518D02*
D03*
X7264D02*
D03*
X7010D02*
D03*
X6756D02*
D03*
X6502D02*
D03*
X6248D02*
D03*
X5994D02*
D03*
X5740D02*
D03*
X5486D02*
D03*
X5232D02*
D03*
X4978D02*
D03*
X4724D02*
D03*
X4470D02*
D03*
X6248Y7925D02*
D03*
X6502D02*
D03*
X6756D02*
D03*
X7010D02*
D03*
X7264D02*
D03*
X7518D02*
D03*
X7772D02*
D03*
D22*
X1245Y3785D02*
D03*
X9042Y3086D02*
D03*
X4216Y1308D02*
D03*
X5994Y7925D02*
D03*
D23*
X1334Y2146D02*
D03*
Y2400D02*
D03*
Y406D02*
D03*
Y660D02*
D03*
Y1524D02*
D03*
Y1270D02*
D03*
D24*
X4737Y3823D02*
D03*
X8903D02*
D03*
X4737Y7925D02*
D03*
X8903D02*
D03*
D25*
X400Y400D02*
D03*
Y8600D02*
D03*
X9100D02*
D03*
Y400D02*
D03*
D26*
X2756Y1791D02*
D03*
X3518D02*
D03*
X2743Y584D02*
D03*
X3505D02*
D03*
X2756Y1092D02*
D03*
X3518D02*
D03*
M02*
