M48
;Layer_Color=9474304
;FILE_FORMAT=4:2
METRIC,LZ
;TYPE=PLATED
T1F00S00C0.71
T2F00S00C0.85
T3F00S00C0.90
T4F00S00C1.27
T5F00S00C2.50
T6F00S00C3.20
%
T01
X007518Y004493
T02
X002743Y000584
X002756Y001092
Y001791
X003518
Y001092
X003505Y000584
T03
X004216Y001308
X00447
X004724
X004978
X005232
X005486
X00574
X005994
X006248
X006502
X006756
X00701
X007264
X007518
X007772
X008026
X00828
X008534
X008788
X009042
Y003086
X008788
X008534
X00828
X008026
X007772
X007518
X007264
X00701
X006756
X006502
X006248
X005994
X00574
X005486
X005232
X004978
X004724
X00447
X004216
X003023Y003785
X002769
X002515
X002261
X002007
X001753
X001499
X001245
X005994Y007925
X006248
X006502
X006756
X00701
X007264
X007518
X007772
T04
X001334Y000406
Y00066
Y00127
Y001524
Y002146
Y0024
T05
X0091Y0004
X008903Y003823
X004737
X0004Y0086
X004737Y007925
X008903
X0091Y0086
T06
X0004Y0004
M30
