G04*
G04 #@! TF.GenerationSoftware,Altium Limited,Altium Designer,19.0.15 (446)*
G04*
G04 Layer_Color=128*
%FSLAX42Y42*%
%MOMM*%
G71*
G01*
G75*
%ADD28C,0.05*%
D28*
X2978Y3785D02*
X3068D01*
X3023Y3740D02*
Y3830D01*
X2724Y3785D02*
X2814D01*
X2769Y3740D02*
Y3830D01*
X2470Y3785D02*
X2560D01*
X2515Y3740D02*
Y3830D01*
X2216Y3785D02*
X2306D01*
X2261Y3740D02*
Y3830D01*
X1962Y3785D02*
X2052D01*
X2007Y3740D02*
Y3830D01*
X1708Y3785D02*
X1798D01*
X1753Y3740D02*
Y3830D01*
X1454Y3785D02*
X1544D01*
X1499Y3740D02*
Y3830D01*
X1200Y3785D02*
X1290D01*
X1245Y3740D02*
Y3830D01*
X4171Y3086D02*
X4261D01*
X4216Y3041D02*
Y3131D01*
X4425Y3086D02*
X4515D01*
X4470Y3041D02*
Y3131D01*
X4679Y3086D02*
X4769D01*
X4724Y3041D02*
Y3131D01*
X4933Y3086D02*
X5023D01*
X4978Y3041D02*
Y3131D01*
X5187Y3086D02*
X5277D01*
X5232Y3041D02*
Y3131D01*
X5441Y3086D02*
X5531D01*
X5486Y3041D02*
Y3131D01*
X5695Y3086D02*
X5785D01*
X5740Y3041D02*
Y3131D01*
X5949Y3086D02*
X6039D01*
X5994Y3041D02*
Y3131D01*
X6203Y3086D02*
X6293D01*
X6248Y3041D02*
Y3131D01*
X6457Y3086D02*
X6547D01*
X6502Y3041D02*
Y3131D01*
X6711Y3086D02*
X6801D01*
X6756Y3041D02*
Y3131D01*
X6965Y3086D02*
X7055D01*
X7010Y3041D02*
Y3131D01*
X7219Y3086D02*
X7309D01*
X7264Y3041D02*
Y3131D01*
X7473Y3086D02*
X7563D01*
X7518Y3041D02*
Y3131D01*
X7727Y3086D02*
X7817D01*
X7772Y3041D02*
Y3131D01*
X7981Y3086D02*
X8071D01*
X8026Y3041D02*
Y3131D01*
X8235Y3086D02*
X8325D01*
X8280Y3041D02*
Y3131D01*
X8489Y3086D02*
X8579D01*
X8534Y3041D02*
Y3131D01*
X8743Y3086D02*
X8833D01*
X8788Y3041D02*
Y3131D01*
X8997Y3086D02*
X9087D01*
X9042Y3041D02*
Y3131D01*
X1270Y2146D02*
X1397D01*
X1334Y2083D02*
Y2210D01*
X1270Y2400D02*
X1397D01*
X1334Y2337D02*
Y2464D01*
X8997Y1308D02*
X9087D01*
X9042Y1263D02*
Y1353D01*
X8743Y1308D02*
X8833D01*
X8788Y1263D02*
Y1353D01*
X8489Y1308D02*
X8579D01*
X8534Y1263D02*
Y1353D01*
X8235Y1308D02*
X8325D01*
X8280Y1263D02*
Y1353D01*
X7981Y1308D02*
X8071D01*
X8026Y1263D02*
Y1353D01*
X7727Y1308D02*
X7817D01*
X7772Y1263D02*
Y1353D01*
X7473Y1308D02*
X7563D01*
X7518Y1263D02*
Y1353D01*
X7219Y1308D02*
X7309D01*
X7264Y1263D02*
Y1353D01*
X6965Y1308D02*
X7055D01*
X7010Y1263D02*
Y1353D01*
X6711Y1308D02*
X6801D01*
X6756Y1263D02*
Y1353D01*
X6457Y1308D02*
X6547D01*
X6502Y1263D02*
Y1353D01*
X6203Y1308D02*
X6293D01*
X6248Y1263D02*
Y1353D01*
X5949Y1308D02*
X6039D01*
X5994Y1263D02*
Y1353D01*
X5695Y1308D02*
X5785D01*
X5740Y1263D02*
Y1353D01*
X5441Y1308D02*
X5531D01*
X5486Y1263D02*
Y1353D01*
X5187Y1308D02*
X5277D01*
X5232Y1263D02*
Y1353D01*
X4933Y1308D02*
X5023D01*
X4978Y1263D02*
Y1353D01*
X4679Y1308D02*
X4769D01*
X4724Y1263D02*
Y1353D01*
X4425Y1308D02*
X4515D01*
X4470Y1263D02*
Y1353D01*
X4171Y1308D02*
X4261D01*
X4216Y1263D02*
Y1353D01*
X4612Y3823D02*
X4862D01*
X4737Y3698D02*
Y3948D01*
X8778Y3823D02*
X9028D01*
X8903Y3698D02*
Y3948D01*
X4612Y7925D02*
X4862D01*
X4737Y7800D02*
Y8050D01*
X8778Y7925D02*
X9028D01*
X8903Y7800D02*
Y8050D01*
X1270Y406D02*
X1397D01*
X1334Y343D02*
Y470D01*
X1270Y660D02*
X1397D01*
X1334Y597D02*
Y724D01*
X240Y400D02*
X560D01*
X400Y240D02*
Y560D01*
X275Y8600D02*
X525D01*
X400Y8475D02*
Y8725D01*
X8975Y8600D02*
X9225D01*
X9100Y8475D02*
Y8725D01*
X8975Y400D02*
X9225D01*
X9100Y275D02*
Y525D01*
X2713Y1791D02*
X2798D01*
X2756Y1748D02*
Y1833D01*
X3475Y1791D02*
X3560D01*
X3518Y1748D02*
Y1833D01*
X2701Y584D02*
X2786D01*
X2743Y542D02*
Y627D01*
X3463Y584D02*
X3548D01*
X3505Y542D02*
Y627D01*
X1270Y1524D02*
X1397D01*
X1334Y1460D02*
Y1588D01*
X1270Y1270D02*
X1397D01*
X1334Y1206D02*
Y1334D01*
X2713Y1092D02*
X2798D01*
X2756Y1050D02*
Y1135D01*
X3475Y1092D02*
X3560D01*
X3518Y1050D02*
Y1135D01*
X5949Y7925D02*
X6039D01*
X5994Y7880D02*
Y7970D01*
X6203Y7925D02*
X6293D01*
X6248Y7880D02*
Y7970D01*
X6457Y7925D02*
X6547D01*
X6502Y7880D02*
Y7970D01*
X6711Y7925D02*
X6801D01*
X6756Y7880D02*
Y7970D01*
X6965Y7925D02*
X7055D01*
X7010Y7880D02*
Y7970D01*
X7219Y7925D02*
X7309D01*
X7264Y7880D02*
Y7970D01*
X7473Y7925D02*
X7563D01*
X7518Y7880D02*
Y7970D01*
X7727Y7925D02*
X7817D01*
X7772Y7880D02*
Y7970D01*
X7483Y4493D02*
X7554D01*
X7518Y4458D02*
Y4529D01*
M02*
