G04*
G04 #@! TF.GenerationSoftware,Altium Limited,Altium Designer,19.0.15 (446)*
G04*
G04 Layer_Color=2752767*
%FSLAX42Y42*%
%MOMM*%
G71*
G01*
G75*
%ADD28C,0.05*%
%ADD29C,0.07*%
D28*
X3002Y3764D02*
Y3805D01*
X3043D01*
Y3764D01*
X3002D01*
X2748D02*
Y3805D01*
X2789D01*
Y3764D01*
X2748D01*
X2494D02*
Y3805D01*
X2535D01*
Y3764D01*
X2494D01*
X2240D02*
Y3805D01*
X2281D01*
Y3764D01*
X2240D01*
X1986D02*
Y3805D01*
X2027D01*
Y3764D01*
X1986D01*
X1732D02*
Y3805D01*
X1773D01*
Y3764D01*
X1732D01*
X1478D02*
Y3805D01*
X1519D01*
Y3764D01*
X1478D01*
X1224D02*
Y3805D01*
X1265D01*
Y3764D01*
X1224D01*
X4196Y3066D02*
Y3106D01*
X4237D01*
Y3066D01*
X4196D01*
X4450D02*
Y3106D01*
X4491D01*
Y3066D01*
X4450D01*
X4704D02*
Y3106D01*
X4745D01*
Y3066D01*
X4704D01*
X4958D02*
Y3106D01*
X4999D01*
Y3066D01*
X4958D01*
X5212D02*
Y3106D01*
X5253D01*
Y3066D01*
X5212D01*
X5466D02*
Y3106D01*
X5507D01*
Y3066D01*
X5466D01*
X5720D02*
Y3106D01*
X5761D01*
Y3066D01*
X5720D01*
X5974D02*
Y3106D01*
X6015D01*
Y3066D01*
X5974D01*
X6228D02*
Y3106D01*
X6269D01*
Y3066D01*
X6228D01*
X6482D02*
Y3106D01*
X6523D01*
Y3066D01*
X6482D01*
X6736D02*
Y3106D01*
X6777D01*
Y3066D01*
X6736D01*
X6990D02*
Y3106D01*
X7031D01*
Y3066D01*
X6990D01*
X7244D02*
Y3106D01*
X7285D01*
Y3066D01*
X7244D01*
X7498D02*
Y3106D01*
X7539D01*
Y3066D01*
X7498D01*
X7752D02*
Y3106D01*
X7793D01*
Y3066D01*
X7752D01*
X8006D02*
Y3106D01*
X8047D01*
Y3066D01*
X8006D01*
X8260D02*
Y3106D01*
X8301D01*
Y3066D01*
X8260D01*
X8514D02*
Y3106D01*
X8555D01*
Y3066D01*
X8514D01*
X8768D02*
Y3106D01*
X8809D01*
Y3066D01*
X8768D01*
X9022D02*
Y3106D01*
X9063D01*
Y3066D01*
X9022D01*
Y1288D02*
Y1328D01*
X9063D01*
Y1288D01*
X9022D01*
X8768D02*
Y1328D01*
X8809D01*
Y1288D01*
X8768D01*
X8514D02*
Y1328D01*
X8555D01*
Y1288D01*
X8514D01*
X8260D02*
Y1328D01*
X8301D01*
Y1288D01*
X8260D01*
X8006D02*
Y1328D01*
X8047D01*
Y1288D01*
X8006D01*
X7752D02*
Y1328D01*
X7793D01*
Y1288D01*
X7752D01*
X7498D02*
Y1328D01*
X7539D01*
Y1288D01*
X7498D01*
X7244D02*
Y1328D01*
X7285D01*
Y1288D01*
X7244D01*
X6990D02*
Y1328D01*
X7031D01*
Y1288D01*
X6990D01*
X6736D02*
Y1328D01*
X6777D01*
Y1288D01*
X6736D01*
X6482D02*
Y1328D01*
X6523D01*
Y1288D01*
X6482D01*
X6228D02*
Y1328D01*
X6269D01*
Y1288D01*
X6228D01*
X5974D02*
Y1328D01*
X6015D01*
Y1288D01*
X5974D01*
X5720D02*
Y1328D01*
X5761D01*
Y1288D01*
X5720D01*
X5466D02*
Y1328D01*
X5507D01*
Y1288D01*
X5466D01*
X5212D02*
Y1328D01*
X5253D01*
Y1288D01*
X5212D01*
X4958D02*
Y1328D01*
X4999D01*
Y1288D01*
X4958D01*
X4704D02*
Y1328D01*
X4745D01*
Y1288D01*
X4704D01*
X4450D02*
Y1328D01*
X4491D01*
Y1288D01*
X4450D01*
X4196D02*
Y1328D01*
X4237D01*
Y1288D01*
X4196D01*
X4737Y3802D02*
X4717Y3843D01*
X4757D01*
X4737Y3802D01*
X8903D02*
X8882Y3843D01*
X8923D01*
X8903Y3802D01*
X4737Y7904D02*
X4717Y7945D01*
X4757D01*
X4737Y7904D01*
X8903D02*
X8882Y7945D01*
X8923D01*
X8903Y7904D01*
X400Y380D02*
X410Y390D01*
X420D01*
X410Y400D01*
X420Y410D01*
X410D01*
X400Y420D01*
X389Y410D01*
X379D01*
X389Y400D01*
X379Y390D01*
X389D01*
X400Y380D01*
Y8580D02*
X379Y8620D01*
X420D01*
X400Y8580D01*
X9100D02*
X9079Y8620D01*
X9120D01*
X9100Y8580D01*
Y380D02*
X9079Y420D01*
X9120D01*
X9100Y380D01*
X2736Y1770D02*
X2746Y1791D01*
X2736Y1811D01*
X2756Y1801D01*
X2776Y1811D01*
X2766Y1791D01*
X2776Y1770D01*
X2756Y1781D01*
X2736Y1770D01*
X3498D02*
X3508Y1791D01*
X3498Y1811D01*
X3518Y1801D01*
X3538Y1811D01*
X3528Y1791D01*
X3538Y1770D01*
X3518Y1781D01*
X3498Y1770D01*
X2723Y564D02*
X2733Y584D01*
X2723Y605D01*
X2743Y594D01*
X2764Y605D01*
X2753Y584D01*
X2764Y564D01*
X2743Y574D01*
X2723Y564D01*
X3485D02*
X3495Y584D01*
X3485Y605D01*
X3505Y594D01*
X3526Y605D01*
X3515Y584D01*
X3526Y564D01*
X3505Y574D01*
X3485Y564D01*
X2736Y1072D02*
X2746Y1092D01*
X2736Y1113D01*
X2756Y1102D01*
X2776Y1113D01*
X2766Y1092D01*
X2776Y1072D01*
X2756Y1082D01*
X2736Y1072D01*
X3498D02*
X3508Y1092D01*
X3498Y1113D01*
X3518Y1102D01*
X3538Y1113D01*
X3528Y1092D01*
X3538Y1072D01*
X3518Y1082D01*
X3498Y1072D01*
X5974Y7904D02*
Y7945D01*
X6015D01*
Y7904D01*
X5974D01*
X6228D02*
Y7945D01*
X6269D01*
Y7904D01*
X6228D01*
X6482D02*
Y7945D01*
X6523D01*
Y7904D01*
X6482D01*
X6736D02*
Y7945D01*
X6777D01*
Y7904D01*
X6736D01*
X6990D02*
Y7945D01*
X7031D01*
Y7904D01*
X6990D01*
X7244D02*
Y7945D01*
X7285D01*
Y7904D01*
X7244D01*
X7498D02*
Y7945D01*
X7539D01*
Y7904D01*
X7498D01*
X7752D02*
Y7945D01*
X7793D01*
Y7904D01*
X7752D01*
X7508Y4483D02*
Y4473D01*
X7529D01*
Y4483D01*
X7539D01*
Y4503D01*
X7529D01*
Y4514D01*
X7508D01*
Y4503D01*
X7498D01*
Y4483D01*
X7508D01*
D29*
X1354Y2146D02*
G03*
X1354Y2146I-20J0D01*
G01*
Y2400D02*
G03*
X1354Y2400I-20J0D01*
G01*
Y406D02*
G03*
X1354Y406I-20J0D01*
G01*
Y660D02*
G03*
X1354Y660I-20J0D01*
G01*
Y1524D02*
G03*
X1354Y1524I-20J0D01*
G01*
Y1270D02*
G03*
X1354Y1270I-20J0D01*
G01*
M02*
