G04*
G04 #@! TF.GenerationSoftware,Altium Limited,Altium Designer,19.0.15 (446)*
G04*
G04 Layer_Color=8388736*
%FSLAX42Y42*%
%MOMM*%
G71*
G01*
G75*
%ADD13C,1.70*%
%ADD14R,1.70X1.70*%
%ADD15C,1.73*%
%ADD16C,1.98*%
%ADD17C,1.60*%
%ADD18R,1.70X1.70*%
D13*
X7696Y6071D02*
D03*
Y5817D02*
D03*
Y5563D02*
D03*
Y5309D02*
D03*
Y5055D02*
D03*
Y4801D02*
D03*
Y4547D02*
D03*
Y4293D02*
D03*
Y4039D02*
D03*
Y3785D02*
D03*
Y3531D02*
D03*
Y3277D02*
D03*
Y3023D02*
D03*
Y2769D02*
D03*
Y2515D02*
D03*
Y2261D02*
D03*
Y2007D02*
D03*
Y1753D02*
D03*
Y1499D02*
D03*
X5906D02*
D03*
Y1753D02*
D03*
Y2007D02*
D03*
Y2261D02*
D03*
Y2515D02*
D03*
Y2769D02*
D03*
Y3023D02*
D03*
Y3277D02*
D03*
Y3531D02*
D03*
Y3785D02*
D03*
Y4039D02*
D03*
Y4293D02*
D03*
Y4547D02*
D03*
Y4801D02*
D03*
Y5055D02*
D03*
Y5309D02*
D03*
Y5563D02*
D03*
Y5817D02*
D03*
Y6071D02*
D03*
X7455Y6947D02*
D03*
X7201D02*
D03*
X6947D02*
D03*
X6693D02*
D03*
X6439D02*
D03*
X6185D02*
D03*
X5931D02*
D03*
X4381Y7087D02*
D03*
Y6833D02*
D03*
Y6579D02*
D03*
Y6325D02*
D03*
Y6071D02*
D03*
Y5817D02*
D03*
Y5563D02*
D03*
D14*
X7696Y1245D02*
D03*
X5906D02*
D03*
X4381Y7341D02*
D03*
D15*
X4394Y4445D02*
D03*
Y8522D02*
D03*
X330Y4458D02*
D03*
Y8522D02*
D03*
X400Y9100D02*
D03*
X8600D02*
D03*
Y400D02*
D03*
X400D02*
D03*
D16*
X597Y2375D02*
D03*
X851D02*
D03*
X1613Y1321D02*
D03*
X1359D02*
D03*
X1651Y3594D02*
D03*
X1397D02*
D03*
D17*
X1968Y1524D02*
D03*
X2731D02*
D03*
X2019Y2350D02*
D03*
X2781D02*
D03*
X2019Y3048D02*
D03*
X2781D02*
D03*
D18*
X7709Y6947D02*
D03*
M02*
