G04*
G04 #@! TF.GenerationSoftware,Altium Limited,Altium Designer,19.0.15 (446)*
G04*
G04 Layer_Color=65535*
%FSLAX42Y42*%
%MOMM*%
G71*
G01*
G75*
%ADD10C,0.13*%
%ADD11C,0.20*%
%ADD12C,0.25*%
D10*
X2108Y2032D02*
G03*
X2108Y2515I0J241D01*
G01*
Y292D02*
G03*
X2108Y775I0J241D01*
G01*
Y1156D02*
G03*
X2108Y1638I0J241D01*
G01*
X952Y2464D02*
Y2578D01*
Y2464D02*
X1206D01*
Y2083D02*
Y2464D01*
X952Y2083D02*
X1206D01*
X952Y1968D02*
Y2083D01*
X1854Y2515D02*
X2108D01*
X1854Y2032D02*
X2108D01*
X952Y2578D02*
X1854D01*
Y1968D02*
Y2578D01*
X952Y1968D02*
X1854D01*
X952Y724D02*
Y838D01*
Y724D02*
X1206D01*
Y343D02*
Y724D01*
X952Y343D02*
X1206D01*
X952Y229D02*
Y343D01*
X1854Y775D02*
X2108D01*
X1854Y292D02*
X2108D01*
X952Y838D02*
X1854D01*
Y229D02*
Y838D01*
X952Y229D02*
X1854D01*
X952Y1092D02*
X1854D01*
Y1702D01*
X952D02*
X1854D01*
Y1156D02*
X2108D01*
X1854Y1638D02*
X2108D01*
X952Y1092D02*
Y1206D01*
X1206D01*
Y1588D01*
X952D02*
X1206D01*
X952D02*
Y1702D01*
D11*
X1118Y3912D02*
X3150D01*
X1118Y3658D02*
Y3912D01*
Y3658D02*
X3150D01*
Y3912D01*
X4089Y2959D02*
X8979D01*
X9169D01*
Y3213D01*
X4089D02*
X9169D01*
X4089Y2959D02*
Y3213D01*
X4280Y1435D02*
X9169D01*
X4089D02*
X4280D01*
X4089Y1181D02*
Y1435D01*
Y1181D02*
X9169D01*
Y1435D01*
X2883Y1715D02*
Y1791D01*
Y1715D02*
X3391D01*
Y1867D01*
X2883D02*
X3391D01*
X2883Y1791D02*
Y1867D01*
X3391Y1791D02*
X3414D01*
X2860D02*
X2883D01*
X2870Y508D02*
Y584D01*
Y508D02*
X3378D01*
Y660D01*
X2870D02*
X3378D01*
X2870Y584D02*
Y660D01*
X3378Y584D02*
X3401D01*
X2847D02*
X2870D01*
X2883Y1016D02*
Y1092D01*
Y1016D02*
X3391D01*
Y1168D01*
X2883D02*
X3391D01*
X2883Y1092D02*
Y1168D01*
X3391Y1092D02*
X3414D01*
X2860D02*
X2883D01*
X7899Y7798D02*
Y8052D01*
X5867Y7798D02*
X7899D01*
X5867D02*
Y8052D01*
X7899D01*
D12*
X1133Y3998D02*
Y4150D01*
X1184Y4100D01*
X1234Y4150D01*
Y3998D01*
X1285D02*
Y4100D01*
X1336Y4150D01*
X1387Y4100D01*
Y3998D01*
Y4074D01*
X1285D01*
X1438Y4150D02*
X1539Y3998D01*
Y4150D02*
X1438Y3998D01*
X4105Y3299D02*
Y3452D01*
X4181D01*
X4206Y3426D01*
Y3376D01*
X4181Y3350D01*
X4105D01*
X4155D02*
X4206Y3299D01*
X4257D02*
Y3401D01*
X4308Y3452D01*
X4359Y3401D01*
Y3299D01*
Y3376D01*
X4257D01*
X4511Y3426D02*
X4486Y3452D01*
X4435D01*
X4409Y3426D01*
Y3401D01*
X4435Y3376D01*
X4486D01*
X4511Y3350D01*
Y3325D01*
X4486Y3299D01*
X4435D01*
X4409Y3325D01*
X4562Y3299D02*
Y3452D01*
X4638D01*
X4663Y3426D01*
Y3376D01*
X4638Y3350D01*
X4562D01*
X4714Y3299D02*
X4765D01*
X4739D01*
Y3452D01*
X4714Y3426D01*
X973Y2814D02*
Y2662D01*
X1049D01*
X1074Y2687D01*
Y2789D01*
X1049Y2814D01*
X973D01*
X1125Y2662D02*
X1176D01*
X1151D01*
Y2814D01*
X1125Y2789D01*
X4105Y1521D02*
Y1674D01*
X4181D01*
X4206Y1648D01*
Y1598D01*
X4181Y1572D01*
X4105D01*
X4155D02*
X4206Y1521D01*
X4257D02*
Y1623D01*
X4308Y1674D01*
X4359Y1623D01*
Y1521D01*
Y1598D01*
X4257D01*
X4511Y1648D02*
X4486Y1674D01*
X4435D01*
X4409Y1648D01*
Y1623D01*
X4435Y1598D01*
X4486D01*
X4511Y1572D01*
Y1547D01*
X4486Y1521D01*
X4435D01*
X4409Y1547D01*
X4562Y1521D02*
Y1674D01*
X4638D01*
X4663Y1648D01*
Y1598D01*
X4638Y1572D01*
X4562D01*
X4816Y1521D02*
X4714D01*
X4816Y1623D01*
Y1648D01*
X4790Y1674D01*
X4739D01*
X4714Y1648D01*
X973Y1072D02*
Y919D01*
X1049D01*
X1074Y945D01*
Y1046D01*
X1049Y1072D01*
X973D01*
X1227Y919D02*
X1125D01*
X1227Y1021D01*
Y1046D01*
X1201Y1072D01*
X1151D01*
X1125Y1046D01*
X2700Y1255D02*
Y1407D01*
X2776D01*
X2802Y1382D01*
Y1331D01*
X2776Y1306D01*
X2700D01*
X2751D02*
X2802Y1255D01*
X2852Y1382D02*
X2878Y1407D01*
X2929D01*
X2954Y1382D01*
Y1356D01*
X2929Y1331D01*
X2903D01*
X2929D01*
X2954Y1306D01*
Y1280D01*
X2929Y1255D01*
X2878D01*
X2852Y1280D01*
X2687Y747D02*
Y899D01*
X2763D01*
X2789Y874D01*
Y823D01*
X2763Y798D01*
X2687D01*
X2738D02*
X2789Y747D01*
X2941D02*
X2840D01*
X2941Y848D01*
Y874D01*
X2916Y899D01*
X2865D01*
X2840Y874D01*
X2700Y1953D02*
Y2106D01*
X2776D01*
X2802Y2080D01*
Y2029D01*
X2776Y2004D01*
X2700D01*
X2751D02*
X2802Y1953D01*
X2852D02*
X2903D01*
X2878D01*
Y2106D01*
X2852Y2080D01*
X5883Y8138D02*
Y8291D01*
X5984Y8138D01*
Y8291D01*
X6111D02*
X6060D01*
X6035Y8265D01*
Y8164D01*
X6060Y8138D01*
X6111D01*
X6137Y8164D01*
Y8265D01*
X6111Y8291D01*
X6187D02*
Y8138D01*
Y8189D01*
X6289Y8291D01*
X6213Y8214D01*
X6289Y8138D01*
X6340Y8291D02*
X6390D01*
X6365D01*
Y8138D01*
X6340D01*
X6390D01*
X6467D02*
Y8240D01*
X6517Y8291D01*
X6568Y8240D01*
Y8138D01*
Y8214D01*
X6467D01*
X973Y1935D02*
Y1783D01*
X1049D01*
X1074Y1808D01*
Y1910D01*
X1049Y1935D01*
X973D01*
X1125Y1910D02*
X1151Y1935D01*
X1201D01*
X1227Y1910D01*
Y1885D01*
X1201Y1859D01*
X1176D01*
X1201D01*
X1227Y1834D01*
Y1808D01*
X1201Y1783D01*
X1151D01*
X1125Y1808D01*
M02*
